<svg width="26" height="21" viewBox="0 0 26 21" fill="none" xmlns="http://www.w3.org/2000/svg">
<path d="M2.15503 17.4551V19.4647C2.15503 19.8322 2.4525 20.1293 2.81862 20.1293H4.98615C5.35306 20.1293 5.64975 19.8314 5.64975 19.4647V17.4551" stroke="#DEDEDE" stroke-width="0.8" stroke-linecap="round" stroke-linejoin="round"/>
<path d="M7.32813 12.0378C7.3731 12.5602 3.81132 11.6696 3.64798 11.1369C3.48465 10.6043 3.52884 9.25296 4.63272 9.25296C5.73661 9.25296 6.04749 9.67417 6.42861 10.0725C6.80262 10.4628 7.24686 11.0966 7.32813 12.0386V12.0378Z" stroke="#DEDEDE" stroke-width="0.8" stroke-linecap="round" stroke-linejoin="round"/>
<path d="M8.82019 11.2602H17.308" stroke="#DEDEDE" stroke-width="0.8" stroke-linecap="round" stroke-linejoin="round"/>
<path d="M16.354 13.1702H9.77411" stroke="#DEDEDE" stroke-width="0.8" stroke-linecap="round" stroke-linejoin="round"/>
<path d="M3.15949 6.53284C3.15949 7.02597 2.99853 7.21958 2.16529 7.21958C1.33205 7.21958 0.656616 6.81971 0.656616 6.32659C0.656616 5.83346 1.33205 5.43359 2.16529 5.43359C2.99853 5.43359 3.15949 6.03893 3.15949 6.53205V6.53284Z" stroke="#DEDEDE" stroke-width="0.8" stroke-linecap="round" stroke-linejoin="round"/>
<path d="M13.0645 6.56684H22.2909L20.2827 2.384C20.0531 1.9051 19.5686 1.60006 19.0384 1.60006C19.0384 1.60006 16.0566 1.25867 13.0645 1.25867C10.0724 1.25867 7.09055 1.60006 7.09055 1.60006C6.55952 1.60006 6.07583 1.9051 5.84621 2.384L3.83807 6.56684H13.0645Z" stroke="#DEDEDE" stroke-width="0.8" stroke-linecap="round" stroke-linejoin="round"/>
<path d="M22.2909 6.56688C22.8235 7.89768 23.4161 9.0475 24.1018 9.92074C24.505 10.4336 24.6825 11.0903 24.5752 11.7344C24.292 13.4429 24.2525 15.1088 24.247 16.6182C24.2454 17.0813 23.8698 17.4559 23.4066 17.4559H2.7216C2.25842 17.4559 1.88362 17.0813 1.88205 16.6174C1.87652 15.0938 1.83707 13.4469 1.5538 11.7352C1.44728 11.0911 1.62481 10.4344 2.02723 9.92153C2.71292 9.0483 3.3055 7.89926 3.83811 6.56767" stroke="#DEDEDE" stroke-width="0.8" stroke-linecap="round" stroke-linejoin="round"/>
<path d="M23.9731 17.4551V19.4647C23.9731 19.8322 23.6756 20.1293 23.3095 20.1293H21.142C20.7751 20.1293 20.4784 19.8314 20.4784 19.4647V17.4551" stroke="#DEDEDE" stroke-width="0.8" stroke-linecap="round" stroke-linejoin="round"/>
<path d="M18.8 12.0378C18.7551 12.5602 22.3169 11.6696 22.4802 11.1369C22.6435 10.6043 22.5993 9.25296 21.4955 9.25296C20.3916 9.25296 20.0807 9.67417 19.6996 10.0725C19.3256 10.4628 18.8813 11.0966 18.8 12.0386V12.0378Z" stroke="#DEDEDE" stroke-width="0.8" stroke-linecap="round" stroke-linejoin="round"/>
<path d="M21.4324 17.2322C20.4784 16.468 20.0499 15.3719 18.8593 15.3719H7.26884C6.07816 15.3719 5.64892 16.468 4.69574 17.2322" stroke="#DEDEDE" stroke-width="0.8" stroke-linecap="round" stroke-linejoin="round"/>
<path d="M22.9695 6.53284C22.9695 7.02597 23.1304 7.21958 23.9637 7.21958C24.7969 7.21958 25.4724 6.81971 25.4724 6.32659C25.4724 5.83346 24.7969 5.43359 23.9637 5.43359C23.1304 5.43359 22.9695 6.03893 22.9695 6.53205V6.53284Z" stroke="#DEDEDE" stroke-width="0.8" stroke-linecap="round" stroke-linejoin="round"/>
</svg>
