<svg width="127" height="99" viewBox="0 0 127 99" fill="none" xmlns="http://www.w3.org/2000/svg">
<path d="M36.425 65.0907C36.3419 65.5033 35.7689 65.8385 35.1443 65.8385C34.5197 65.8385 34.0871 65.5033 34.1788 65.0907C34.2676 64.681 34.8406 64.3516 35.4566 64.3516C36.0726 64.3516 36.508 64.681 36.425 65.0907V65.0907Z" stroke="#1F1F1F" stroke-width="3" stroke-linecap="round" stroke-linejoin="round"/>
<path d="M70.8256 50.1467H58.5231H15.8253L2.23633 84.2751H57.0419H111.879L106.209 71.5916" stroke="#1F1F1F" stroke-width="3" stroke-linecap="round" stroke-linejoin="round"/>
<path d="M72.9229 55.3926H28.6293C27.8815 58.0342 23.667 59.5985 19.2462 59.5985L14.7939 71.8609C19.6588 71.8609 22.8132 74.6572 21.7961 78.2585H92.3222C91.3051 74.6543 94.4595 71.8609 99.3244 71.8609" stroke="#1F1F1F" stroke-width="3" stroke-linecap="round" stroke-linejoin="round"/>
<path d="M77.6903 65.0907C77.7734 65.5033 78.3464 65.8385 78.971 65.8385C79.5956 65.8385 80.0282 65.5033 79.9365 65.0907C79.8477 64.681 79.2747 64.3516 78.6587 64.3516C78.0427 64.3516 77.6073 64.681 77.6903 65.0907V65.0907Z" stroke="#1F1F1F" stroke-width="3" stroke-linecap="round" stroke-linejoin="round"/>
<path d="M57.0734 73.0499C60.7396 73.0499 63.7117 70.2664 63.7117 66.8328C63.7117 63.3991 60.7396 60.6156 57.0734 60.6156C53.4071 60.6156 50.4351 63.3991 50.4351 66.8328C50.4351 70.2664 53.4071 73.0499 57.0734 73.0499Z" stroke="#1F1F1F" stroke-width="3" stroke-linecap="round" stroke-linejoin="round"/>
<path d="M2.23633 90.7932H111.879" stroke="#1F1F1F" stroke-width="3" stroke-linecap="round" stroke-linejoin="round"/>
<path d="M2.23633 97.2424H111.879" stroke="#1F1F1F" stroke-width="3" stroke-linecap="round" stroke-linejoin="round"/>
<path d="M36.1727 18.9721C44.9562 18.9721 52.0766 16.3899 52.0766 13.2047C52.0766 10.0195 44.9562 7.43738 36.1727 7.43738C27.3892 7.43738 20.2688 10.0195 20.2688 13.2047C20.2688 16.3899 27.3892 18.9721 36.1727 18.9721Z" stroke="#1F1F1F" stroke-width="3" stroke-linecap="round" stroke-linejoin="round"/>
<path d="M52.0766 13.2047V20.7942C52.0766 23.9773 44.9569 26.5616 36.1727 26.5616C27.3884 26.5616 20.2688 23.9802 20.2688 20.7942V13.2047" stroke="#1F1F1F" stroke-width="3" stroke-linecap="round" stroke-linejoin="round"/>
<path d="M22.1599 23.5246V28.3838C22.1599 31.5668 29.2796 34.1511 38.0638 34.1511C46.848 34.1511 53.9677 31.5697 53.9677 28.3838V23.5246C53.9792 22.8485 52.5008 22.0463 51.7501 21.9603" stroke="#1F1F1F" stroke-width="3" stroke-linecap="round" stroke-linejoin="round"/>
<path d="M20.2688 35.9733C20.2688 39.1563 27.3884 41.7406 36.1727 41.7406C44.9569 41.7406 52.0766 39.1592 52.0766 35.9733V31.1141" stroke="#1F1F1F" stroke-width="3" stroke-linecap="round" stroke-linejoin="round"/>
<path d="M20.2689 36.1079V31.2488C20.2574 30.5726 21.7358 29.7704 22.4864 29.6844" stroke="#1F1F1F" stroke-width="3" stroke-linecap="round" stroke-linejoin="round"/>
<path d="M78.1485 13.0471C86.932 13.0471 94.0524 10.465 94.0524 7.2798C94.0524 4.09458 86.932 1.51245 78.1485 1.51245C69.365 1.51245 62.2446 4.09458 62.2446 7.2798C62.2446 10.465 69.365 13.0471 78.1485 13.0471Z" stroke="#1F1F1F" stroke-width="3" stroke-linecap="round" stroke-linejoin="round"/>
<path d="M81.7843 20.6338C69.625 20.9146 62.2446 18.0524 62.2446 14.8664V7.27979" stroke="#1F1F1F" stroke-width="3" stroke-linecap="round" stroke-linejoin="round"/>
<path d="M94.0525 7.27979V14.8693" stroke="#1F1F1F" stroke-width="3" stroke-linecap="round" stroke-linejoin="round"/>
<path d="M64.1387 17.5997V22.731C64.1387 23.5275 64.4939 24.281 65.1128 24.7795C67.1785 26.4499 70.5506 27.1317 75.1118 27.9397" stroke="#1F1F1F" stroke-width="3" stroke-linecap="round" stroke-linejoin="round"/>
<path d="M70.7166 42.6574C67.1295 41.7549 64.8862 41.1332 63.3534 39.7465C62.6085 39.0732 62.2446 37.1164 62.2446 36.1108V30.0455C63.3534 32.8933 66.9462 34.1425 71.5818 35.2971" stroke="#1F1F1F" stroke-width="3" stroke-linecap="round" stroke-linejoin="round"/>
<path d="M62.2447 30.1802V25.321C62.2332 24.6449 63.7116 23.8427 64.4622 23.7567" stroke="#1F1F1F" stroke-width="3" stroke-linecap="round" stroke-linejoin="round"/>
<path d="M122.612 47.1848C124.699 34.329 115.969 22.2156 103.113 20.1288C90.2575 18.042 78.1441 26.772 76.0573 39.6278C73.9705 52.4837 82.7005 64.5971 95.5564 66.6839C108.412 68.7707 120.526 60.0406 122.612 47.1848Z" stroke="#1F1F1F" stroke-width="3" stroke-linecap="round" stroke-linejoin="round"/>
<path d="M92.1562 38.6951C94.2496 38.6951 95.9466 36.9981 95.9466 34.9047C95.9466 32.8112 94.2496 31.1142 92.1562 31.1142C90.0628 31.1142 88.3657 32.8112 88.3657 34.9047C88.3657 36.9981 90.0628 38.6951 92.1562 38.6951Z" stroke="#1F1F1F" stroke-width="3" stroke-linecap="round" stroke-linejoin="round"/>
<path d="M106.584 55.3926C108.678 55.3926 110.375 53.6956 110.375 51.6022C110.375 49.5088 108.678 47.8117 106.584 47.8117C104.491 47.8117 102.794 49.5088 102.794 51.6022C102.794 53.6956 104.491 55.3926 106.584 55.3926Z" stroke="#1F1F1F" stroke-width="3" stroke-linecap="round" stroke-linejoin="round"/>
<path d="M108.338 31.1142L90.5374 55.6877" stroke="#1F1F1F" stroke-width="3" stroke-linecap="round" stroke-linejoin="round"/>
</svg>
