<svg width="37" height="56" viewBox="0 0 37 56" fill="none" xmlns="http://www.w3.org/2000/svg">
<path d="M25.7356 31.4301L26.6743 30.7108C27.197 30.3105 27.9605 30.5584 28.1471 31.1894L28.4833 32.3232C28.6043 32.7306 28.9832 33.0069 29.4091 32.9955L30.5914 32.9656C31.2509 32.9485 31.7209 33.5981 31.5016 34.2191L31.107 35.3344C30.966 35.7346 31.1099 36.1819 31.4603 36.4226L32.4345 37.0935C32.9772 37.4667 32.9772 38.2687 32.4345 38.6433L31.4603 39.3142C31.1099 39.5549 30.9646 40.0007 31.107 40.4024L31.5016 41.5177C31.7209 42.1387 31.2494 42.7883 30.5914 42.7712L29.4091 42.7413C28.9846 42.7299 28.6043 43.0062 28.4833 43.4136L28.1471 44.5474C27.9591 45.1798 27.197 45.4277 26.6743 45.026L25.7356 44.3067C25.398 44.0474 24.9294 44.0474 24.5918 44.3067L23.6531 45.026C23.1304 45.4263 22.3669 45.1784 22.1803 44.5474L21.8441 43.4136C21.7231 43.0062 21.3442 42.7299 20.9183 42.7413L19.736 42.7712C19.0765 42.7883 18.6065 42.1387 18.8258 41.5177L19.2204 40.4024C19.3614 40.0021 19.2176 39.5549 18.8672 39.3142L17.8929 38.6433C17.3502 38.2701 17.3502 37.4681 17.8929 37.0935L18.8672 36.4226C19.2176 36.1819 19.3628 35.7361 19.2204 35.3344L18.8258 34.2191C18.6065 33.5981 19.078 32.9485 19.736 32.9656L20.9183 32.9955C21.3428 33.0069 21.7231 32.7306 21.8441 32.3232L22.1803 31.1894C22.3683 30.557 23.1304 30.3091 23.6531 30.7108L24.5918 31.4301C24.9294 31.6894 25.398 31.6894 25.7356 31.4301V31.4301Z" stroke="#464646" stroke-width="1.5" stroke-linecap="round" stroke-linejoin="round"/>
<path d="M21.1063 47.4945H1.20605V0.926636H35.5811V47.4945H29.2225" stroke="#464646" stroke-width="1.5" stroke-linecap="round" stroke-linejoin="round"/>
<path d="M8.71265 9.19812H29.3465" stroke="#464646" stroke-width="1.5" stroke-linecap="round" stroke-linejoin="round"/>
<path d="M8.71265 16.7303H29.3465" stroke="#464646" stroke-width="1.5" stroke-linecap="round" stroke-linejoin="round"/>
<path d="M8.71265 24.2626H29.3465" stroke="#464646" stroke-width="1.5" stroke-linecap="round" stroke-linejoin="round"/>
<path d="M8.71265 31.7948H14.1353" stroke="#464646" stroke-width="1.5" stroke-linecap="round" stroke-linejoin="round"/>
<path d="M23.5194 35.6306C23.9952 35.2774 24.5721 35.0865 25.1646 35.0865C26.6773 35.0865 27.9222 36.3314 27.9222 37.8441C27.9222 39.3569 26.6773 40.6018 25.1646 40.6018C23.8727 40.6018 22.746 39.6944 22.4711 38.4324" stroke="#464646" stroke-width="1.5" stroke-linecap="round" stroke-linejoin="round"/>
<path d="M29.2228 42.8324V55.1734L25.1647 52.1095L21.1066 55.1734V42.8324" stroke="#464646" stroke-width="1.5" stroke-linecap="round" stroke-linejoin="round"/>
</svg>
