<svg width="37" height="57" viewBox="0 0 37 57" fill="none" xmlns="http://www.w3.org/2000/svg">
<path d="M26.0137 31.6888L26.9524 30.9695C27.4751 30.5693 28.2386 30.8171 28.4252 31.4481L28.7613 32.5819C28.8824 32.9893 29.2613 33.2657 29.6872 33.2543L30.8694 33.2243C31.5289 33.2073 31.999 33.8568 31.7796 34.4778L31.3851 35.5931C31.2441 35.9934 31.3879 36.4406 31.7383 36.6814L32.7126 37.3523C33.2553 37.7254 33.2553 38.5274 32.7126 38.902L31.7383 39.5729C31.3879 39.8136 31.2426 40.2595 31.3851 40.6611L31.7796 41.7764C31.999 42.3975 31.5275 43.047 30.8694 43.0299L29.6872 43C29.2627 42.9886 28.8824 43.2649 28.7613 43.6723L28.4252 44.8061C28.2372 45.4386 27.4751 45.6864 26.9524 45.2847L26.0137 44.5654C25.6761 44.3062 25.2075 44.3062 24.8699 44.5654L23.9312 45.2847C23.4084 45.685 22.645 45.4371 22.4584 44.8061L22.1222 43.6723C22.0011 43.2649 21.6223 42.9886 21.1964 43L20.0141 43.0299C19.3546 43.047 18.8846 42.3975 19.1039 41.7764L19.4985 40.6611C19.6395 40.2609 19.4956 39.8136 19.1452 39.5729L18.1709 38.902C17.6282 38.5288 17.6282 37.7269 18.1709 37.3523L19.1452 36.6814C19.4956 36.4406 19.6409 35.9948 19.4985 35.5931L19.1039 34.4778C18.8846 33.8568 19.356 33.2073 20.0141 33.2243L21.1964 33.2543C21.6208 33.2657 22.0011 32.9893 22.1222 32.5819L22.4584 31.4481C22.6464 30.8157 23.4084 30.5678 23.9312 30.9695L24.8699 31.6888C25.2075 31.9481 25.6761 31.9481 26.0137 31.6888V31.6888Z" stroke="white" stroke-width="1.5" stroke-linecap="round" stroke-linejoin="round"/>
<path d="M21.3844 47.7533H1.48413V1.18542H35.8591V47.7533H29.5006" stroke="white" stroke-width="1.5" stroke-linecap="round" stroke-linejoin="round"/>
<path d="M8.99078 9.45691H29.6246" stroke="white" stroke-width="1.5" stroke-linecap="round" stroke-linejoin="round"/>
<path d="M8.99078 16.9891H29.6246" stroke="white" stroke-width="1.5" stroke-linecap="round" stroke-linejoin="round"/>
<path d="M8.99078 24.5214H29.6246" stroke="white" stroke-width="1.5" stroke-linecap="round" stroke-linejoin="round"/>
<path d="M8.99078 32.0536H14.4135" stroke="white" stroke-width="1.5" stroke-linecap="round" stroke-linejoin="round"/>
<path d="M23.7974 35.8895C24.2732 35.5362 24.8501 35.3453 25.4426 35.3453C26.9553 35.3453 28.2003 36.5903 28.2003 38.103C28.2003 39.6157 26.9553 40.8606 25.4426 40.8606C24.1507 40.8606 23.024 39.9533 22.7491 38.6912" stroke="white" stroke-width="1.5" stroke-linecap="round" stroke-linejoin="round"/>
<path d="M29.5008 43.0912V55.4322L25.4427 52.3683L21.3846 55.4322V43.0912" stroke="white" stroke-width="1.5" stroke-linecap="round" stroke-linejoin="round"/>
</svg>
