<svg width="91" height="100" viewBox="0 0 91 100" fill="none" xmlns="http://www.w3.org/2000/svg">
<path d="M85.5335 80.8629V90.4654C85.5335 94.674 82.1218 98.0857 77.9133 98.0857H10.0109C5.8023 98.0857 2.39062 94.674 2.39062 90.4654V42.2138C2.39062 38.0052 5.8023 34.5936 10.0109 34.5936" stroke="#1F1F1F" stroke-width="3" stroke-linecap="round" stroke-linejoin="round"/>
<path d="M11.1785 41.1679H77.9129C82.1215 41.1679 85.5331 44.5746 85.5331 48.7832V60.1239" stroke="#1F1F1F" stroke-width="3" stroke-linecap="round" stroke-linejoin="round"/>
<path d="M82.3984 59.6582H58.3049C54.6562 59.6582 51.6982 62.6161 51.6982 66.2649V74.6223C51.6982 78.2711 54.6562 81.229 58.3049 81.229H82.3984C86.0472 81.229 89.0051 78.2711 89.0051 74.6223V66.2649C89.0051 62.6161 86.0472 59.6582 82.3984 59.6582Z" stroke="#1F1F1F" stroke-width="3" stroke-linecap="round" stroke-linejoin="round"/>
<path d="M66.9823 71.3936C67.5095 69.1595 66.1259 66.921 63.8919 66.3937C61.6578 65.8664 59.4193 67.25 58.892 69.4841C58.3647 71.7182 59.7483 73.9567 61.9824 74.484C64.2164 75.0113 66.455 73.6276 66.9823 71.3936Z" stroke="#1F1F1F" stroke-width="3" stroke-linecap="round" stroke-linejoin="round"/>
<path d="M74.6235 34.5936C78.09 34.5936 80.9015 37.4051 80.9015 40.8716V41.7755" stroke="#1F1F1F" stroke-width="3" stroke-linecap="round" stroke-linejoin="round"/>
<path d="M18.458 41.1679L53.7129 2.75042C55.0427 1.30356 57.2939 1.20644 58.7407 2.53376L80.4684 22.4734C81.9152 23.8032 82.0124 26.0544 80.6851 27.5013L68.144 41.1679" stroke="#1F1F1F" stroke-width="3" stroke-linecap="round" stroke-linejoin="round"/>
<path d="M59.2238 41.1679L78.2495 20.4363L72.9776 15.6002L49.5142 41.1679H59.2238Z" fill="#1F1F1F"/>
<path d="M11.1788 41.1679L7.33384 10.5375C7.08979 8.58763 8.4719 6.80708 10.4218 6.56303L39.6825 2.88987C41.6324 2.64583 43.413 4.02793 43.657 5.97782L44.5112 12.7788" stroke="#1F1F1F" stroke-width="3" stroke-linecap="round" stroke-linejoin="round"/>
<path d="M15.99 17.3434L16.879 24.4158" stroke="#1F1F1F" stroke-width="3" stroke-linecap="round" stroke-linejoin="round"/>
<path d="M20.6169 16.7607L21.506 23.8331" stroke="#1F1F1F" stroke-width="3" stroke-linecap="round" stroke-linejoin="round"/>
<path d="M25.2412 16.1805L25.6845 19.7167" stroke="#1F1F1F" stroke-width="3" stroke-linecap="round" stroke-linejoin="round"/>
<path d="M16.4358 20.8796L25.6847 19.7167" stroke="#1F1F1F" stroke-width="3" stroke-linecap="round" stroke-linejoin="round"/>
</svg>
