<svg width="23" height="23" viewBox="0 0 23 23" fill="none" xmlns="http://www.w3.org/2000/svg">
<path d="M11.5102 22.0515C17.47 22.0515 22.3015 17.22 22.3015 11.2602C22.3015 5.3003 17.47 0.468872 11.5102 0.468872C5.5503 0.468872 0.718872 5.3003 0.718872 11.2602C0.718872 17.22 5.5503 22.0515 11.5102 22.0515Z" stroke="#D9D9D9" stroke-width="0.8" stroke-linecap="round" stroke-linejoin="round"/>
<path d="M16.2955 16.221C19.0353 13.4812 19.0353 9.03914 16.2955 6.29934C13.5557 3.55953 9.11363 3.55953 6.37382 6.29934C3.63402 9.03914 3.63402 13.4812 6.37382 16.2211C9.11363 18.9609 13.5557 18.9609 16.2955 16.221Z" stroke="#D9D9D9" stroke-width="0.8" stroke-linecap="round" stroke-linejoin="round"/>
<path d="M11.9161 12.9222C12.825 12.6005 13.3011 11.6029 12.9794 10.6939C12.6577 9.78497 11.6601 9.30891 10.7511 9.63061C9.84219 9.9523 9.36613 10.9499 9.68783 11.8589C10.0095 12.7678 11.0072 13.2439 11.9161 12.9222Z" stroke="#D9D9D9" stroke-width="0.8" stroke-linecap="round" stroke-linejoin="round"/>
<path d="M12.3358 9.84619L13.4102 8.31313L15.1878 7.99961L16.2213 6.32635" stroke="#D9D9D9" stroke-width="0.8" stroke-linecap="round" stroke-linejoin="round"/>
<path d="M13.4103 8.31312L13.0968 6.53488L14.2882 5.00816" stroke="#D9D9D9" stroke-width="0.8" stroke-linecap="round" stroke-linejoin="round"/>
<path d="M10.2843 9.8821L9.15701 8.38638L9.40853 6.59899L8.14954 5.09059" stroke="#D9D9D9" stroke-width="0.8" stroke-linecap="round" stroke-linejoin="round"/>
<path d="M9.15696 8.38638L7.36956 8.13486L6.29797 6.52148" stroke="#D9D9D9" stroke-width="0.8" stroke-linecap="round" stroke-linejoin="round"/>
<path d="M9.68327 11.8442L7.91279 12.4536L6.29096 11.6624L4.47961 12.3846" stroke="#D9D9D9" stroke-width="0.8" stroke-linecap="round" stroke-linejoin="round"/>
<path d="M11.3644 13.0222L11.3968 14.8942L10.1427 16.1926L10.2836 18.1294" stroke="#D9D9D9" stroke-width="0.8" stroke-linecap="round" stroke-linejoin="round"/>
<path d="M11.3967 14.8941L12.6952 16.1482L12.6226 18.0596" stroke="#D9D9D9" stroke-width="0.8" stroke-linecap="round" stroke-linejoin="round"/>
<path d="M13.0038 11.7872L14.794 12.3346L15.6415 13.9289L17.5396 14.3848" stroke="#D9D9D9" stroke-width="0.8" stroke-linecap="round" stroke-linejoin="round"/>
<path d="M14.7939 12.3346L16.3883 11.4877L18.1968 12.1387" stroke="#D9D9D9" stroke-width="0.8" stroke-linecap="round" stroke-linejoin="round"/>
<path d="M5.26941 14.5884L7.12162 14.0762L7.91281 12.4537" stroke="#D9D9D9" stroke-width="0.8" stroke-linecap="round" stroke-linejoin="round"/>
</svg>
