<svg width="60" height="47" viewBox="0 0 60 47" fill="none" xmlns="http://www.w3.org/2000/svg">
<path d="M17.4882 30.6685C17.4497 30.8601 17.1836 31.0158 16.8936 31.0158C16.6036 31.0158 16.4027 30.8601 16.4453 30.6685C16.4865 30.4783 16.7526 30.3253 17.0386 30.3253C17.3246 30.3253 17.5268 30.4783 17.4882 30.6685V30.6685Z" stroke="#474747" stroke-width="1.66803" stroke-linecap="round" stroke-linejoin="round"/>
<path d="M33.4615 23.7297H27.7491H7.92326L1.61353 39.5766H27.0613H52.5238L49.8911 33.6872" stroke="#474747" stroke-width="1.66803" stroke-linecap="round" stroke-linejoin="round"/>
<path d="M34.4353 26.1655H13.8685C13.5213 27.3921 11.5644 28.1184 9.51166 28.1184L7.44434 33.8122C9.70323 33.8122 11.1679 35.1106 10.6957 36.7829H43.443C42.9707 35.1093 44.4354 33.8122 46.6943 33.8122" stroke="#474747" stroke-width="1.66803" stroke-linecap="round" stroke-linejoin="round"/>
<path d="M36.6489 30.6685C36.6875 30.8601 36.9535 31.0158 37.2435 31.0158C37.5336 31.0158 37.7344 30.8601 37.6919 30.6685C37.6506 30.4783 37.3846 30.3253 37.0985 30.3253C36.8125 30.3253 36.6103 30.4783 36.6489 30.6685V30.6685Z" stroke="#474747" stroke-width="1.66803" stroke-linecap="round" stroke-linejoin="round"/>
<path d="M27.0761 34.3644C28.7785 34.3644 30.1585 33.0719 30.1585 31.4776C30.1585 29.8832 28.7785 28.5908 27.0761 28.5908C25.3738 28.5908 23.9938 29.8832 23.9938 31.4776C23.9938 33.0719 25.3738 34.3644 27.0761 34.3644Z" stroke="#474747" stroke-width="1.66803" stroke-linecap="round" stroke-linejoin="round"/>
<path d="M1.61353 42.603H52.5238" stroke="#474747" stroke-width="1.66803" stroke-linecap="round" stroke-linejoin="round"/>
<path d="M1.61353 45.5975H52.5238" stroke="#474747" stroke-width="1.66803" stroke-linecap="round" stroke-linejoin="round"/>
<path d="M17.3712 9.25439C21.4496 9.25439 24.7559 8.05543 24.7559 6.57645C24.7559 5.09746 21.4496 3.8985 17.3712 3.8985C13.2928 3.8985 9.98657 5.09746 9.98657 6.57645C9.98657 8.05543 13.2928 9.25439 17.3712 9.25439Z" stroke="#474747" stroke-width="1.66803" stroke-linecap="round" stroke-linejoin="round"/>
<path d="M24.7559 6.57648V10.1005C24.7559 11.5785 21.45 12.7785 17.3712 12.7785C13.2924 12.7785 9.98657 11.5798 9.98657 10.1005V6.57648" stroke="#474747" stroke-width="1.66803" stroke-linecap="round" stroke-linejoin="round"/>
<path d="M10.8645 11.3682V13.6244C10.8645 15.1024 14.1704 16.3024 18.2491 16.3024C22.3279 16.3024 25.6338 15.1038 25.6338 13.6244V11.3682C25.6391 11.0542 24.9527 10.6818 24.6041 10.6418" stroke="#474747" stroke-width="1.66803" stroke-linecap="round" stroke-linejoin="round"/>
<path d="M9.98657 17.1486C9.98657 18.6266 13.2924 19.8265 17.3712 19.8265C21.45 19.8265 24.7559 18.6279 24.7559 17.1486V14.8923" stroke="#474747" stroke-width="1.66803" stroke-linecap="round" stroke-linejoin="round"/>
<path d="M9.9866 17.2111V14.9549C9.98128 14.6409 10.6677 14.2684 11.0163 14.2285" stroke="#474747" stroke-width="1.66803" stroke-linecap="round" stroke-linejoin="round"/>
<path d="M36.8617 6.50323C40.9401 6.50323 44.2463 5.30427 44.2463 3.82529C44.2463 2.3463 40.9401 1.14734 36.8617 1.14734C32.7833 1.14734 29.4771 2.3463 29.4771 3.82529C29.4771 5.30427 32.7833 6.50323 36.8617 6.50323Z" stroke="#474747" stroke-width="1.66803" stroke-linecap="round" stroke-linejoin="round"/>
<path d="M38.5499 10.026C32.904 10.1563 29.4771 8.82734 29.4771 7.34802V3.82532" stroke="#474747" stroke-width="1.66803" stroke-linecap="round" stroke-linejoin="round"/>
<path d="M44.2463 3.82532V7.34935" stroke="#474747" stroke-width="1.66803" stroke-linecap="round" stroke-linejoin="round"/>
<path d="M30.3567 8.61713V10.9997C30.3567 11.3696 30.5217 11.7194 30.809 11.9509C31.7682 12.7265 33.334 13.0431 35.4518 13.4183" stroke="#474747" stroke-width="1.66803" stroke-linecap="round" stroke-linejoin="round"/>
<path d="M33.4108 20.2522C31.7453 19.8331 30.7036 19.5444 29.9919 18.9005C29.646 18.5879 29.4771 17.6793 29.4771 17.2124V14.3961C29.9919 15.7184 31.6601 16.2984 33.8126 16.8345" stroke="#474747" stroke-width="1.66803" stroke-linecap="round" stroke-linejoin="round"/>
<path d="M29.4771 14.4586V12.2024C29.4718 11.8884 30.1582 11.5159 30.5068 11.476" stroke="#474747" stroke-width="1.66803" stroke-linecap="round" stroke-linejoin="round"/>
<path d="M57.5076 22.3543C58.4765 16.385 54.4229 10.7604 48.4536 9.79144C42.4843 8.82247 36.8596 12.8761 35.8907 18.8454C34.9217 24.8148 38.9753 30.4394 44.9447 31.4083C50.914 32.3773 56.5386 28.3237 57.5076 22.3543Z" stroke="#474747" stroke-width="1.66803" stroke-linecap="round" stroke-linejoin="round"/>
<path d="M43.3657 18.4123C44.3378 18.4123 45.1258 17.6243 45.1258 16.6523C45.1258 15.6803 44.3378 14.8923 43.3657 14.8923C42.3937 14.8923 41.6057 15.6803 41.6057 16.6523C41.6057 17.6243 42.3937 18.4123 43.3657 18.4123Z" stroke="#474747" stroke-width="1.66803" stroke-linecap="round" stroke-linejoin="round"/>
<path d="M50.065 26.1655C51.037 26.1655 51.825 25.3776 51.825 24.4055C51.825 23.4335 51.037 22.6455 50.065 22.6455C49.0929 22.6455 48.3049 23.4335 48.3049 24.4055C48.3049 25.3776 49.0929 26.1655 50.065 26.1655Z" stroke="#474747" stroke-width="1.66803" stroke-linecap="round" stroke-linejoin="round"/>
<path d="M50.8792 14.8923L42.6139 26.3025" stroke="#474747" stroke-width="1.66803" stroke-linecap="round" stroke-linejoin="round"/>
</svg>
