<svg width="59" height="47" viewBox="0 0 59 47" fill="none" xmlns="http://www.w3.org/2000/svg">
<path d="M16.7663 30.9273C16.7277 31.1189 16.4617 31.2745 16.1717 31.2745C15.8817 31.2745 15.6808 31.1189 15.7233 30.9273C15.7646 30.7371 16.0306 30.5841 16.3167 30.5841C16.6027 30.5841 16.8049 30.7371 16.7663 30.9273V30.9273Z" stroke="white" stroke-width="1.66803" stroke-linecap="round" stroke-linejoin="round"/>
<path d="M32.7396 23.9885H27.0272H7.20134L0.891602 39.8354H26.3394H51.8019L49.1691 33.946" stroke="white" stroke-width="1.66803" stroke-linecap="round" stroke-linejoin="round"/>
<path d="M33.7134 26.4243H13.1465C12.7993 27.6509 10.8424 28.3772 8.78971 28.3772L6.72238 34.071C8.98128 34.071 10.446 35.3694 9.9737 37.0417H42.721C42.2487 35.3681 43.7134 34.071 45.9723 34.071" stroke="white" stroke-width="1.66803" stroke-linecap="round" stroke-linejoin="round"/>
<path d="M35.9269 30.9273C35.9655 31.1189 36.2315 31.2745 36.5216 31.2745C36.8116 31.2745 37.0124 31.1189 36.9699 30.9273C36.9286 30.7371 36.6626 30.5841 36.3766 30.5841C36.0905 30.5841 35.8883 30.7371 35.9269 30.9273V30.9273Z" stroke="white" stroke-width="1.66803" stroke-linecap="round" stroke-linejoin="round"/>
<path d="M26.3542 34.6232C28.0566 34.6232 29.4366 33.3308 29.4366 31.7364C29.4366 30.1421 28.0566 28.8496 26.3542 28.8496C24.6519 28.8496 23.2719 30.1421 23.2719 31.7364C23.2719 33.3308 24.6519 34.6232 26.3542 34.6232Z" stroke="white" stroke-width="1.66803" stroke-linecap="round" stroke-linejoin="round"/>
<path d="M0.891602 42.8618H51.8019" stroke="white" stroke-width="1.66803" stroke-linecap="round" stroke-linejoin="round"/>
<path d="M0.891602 45.8563H51.8019" stroke="white" stroke-width="1.66803" stroke-linecap="round" stroke-linejoin="round"/>
<path d="M16.6493 9.51312C20.7277 9.51312 24.0339 8.31416 24.0339 6.83517C24.0339 5.35618 20.7277 4.15723 16.6493 4.15723C12.5708 4.15723 9.26462 5.35618 9.26462 6.83517C9.26462 8.31416 12.5708 9.51312 16.6493 9.51312Z" stroke="white" stroke-width="1.66803" stroke-linecap="round" stroke-linejoin="round"/>
<path d="M24.0339 6.83521V10.3592C24.0339 11.8372 20.728 13.0372 16.6493 13.0372C12.5705 13.0372 9.26462 11.8386 9.26462 10.3592V6.83521" stroke="white" stroke-width="1.66803" stroke-linecap="round" stroke-linejoin="round"/>
<path d="M10.1426 11.627V13.8832C10.1426 15.3612 13.4485 16.5612 17.5273 16.5612C21.606 16.5612 24.9119 15.3625 24.9119 13.8832V11.627C24.9172 11.313 24.2308 10.9405 23.8822 10.9006" stroke="white" stroke-width="1.66803" stroke-linecap="round" stroke-linejoin="round"/>
<path d="M9.26462 17.4074C9.26462 18.8853 12.5705 20.0853 16.6493 20.0853C20.728 20.0853 24.0339 18.8867 24.0339 17.4074V15.1511" stroke="white" stroke-width="1.66803" stroke-linecap="round" stroke-linejoin="round"/>
<path d="M9.26465 17.4699V15.2137C9.25933 14.8997 9.94578 14.5272 10.2943 14.4873" stroke="white" stroke-width="1.66803" stroke-linecap="round" stroke-linejoin="round"/>
<path d="M36.1398 6.76202C40.2182 6.76202 43.5244 5.56306 43.5244 4.08407C43.5244 2.60509 40.2182 1.40613 36.1398 1.40613C32.0613 1.40613 28.7551 2.60509 28.7551 4.08407C28.7551 5.56306 32.0613 6.76202 36.1398 6.76202Z" stroke="white" stroke-width="1.66803" stroke-linecap="round" stroke-linejoin="round"/>
<path d="M37.828 10.2848C32.182 10.4151 28.7551 9.08613 28.7551 7.60681V4.08411" stroke="white" stroke-width="1.66803" stroke-linecap="round" stroke-linejoin="round"/>
<path d="M43.5244 4.08411V7.60814" stroke="white" stroke-width="1.66803" stroke-linecap="round" stroke-linejoin="round"/>
<path d="M29.6348 8.87598V11.2586C29.6348 11.6284 29.7997 11.9783 30.0871 12.2098C31.0462 12.9854 32.612 13.302 34.7299 13.6771" stroke="white" stroke-width="1.66803" stroke-linecap="round" stroke-linejoin="round"/>
<path d="M32.6889 20.5109C31.0233 20.0918 29.9817 19.8031 29.27 19.1593C28.9241 18.8466 28.7551 17.938 28.7551 17.4711V14.6548C29.27 15.9771 30.9382 16.5572 33.0907 17.0933" stroke="white" stroke-width="1.66803" stroke-linecap="round" stroke-linejoin="round"/>
<path d="M28.7552 14.7175V12.4612C28.7498 12.1473 29.4363 11.7748 29.7848 11.7349" stroke="white" stroke-width="1.66803" stroke-linecap="round" stroke-linejoin="round"/>
<path d="M56.7857 22.6132C57.7546 16.6439 53.701 11.0192 47.7317 10.0503C41.7623 9.08132 36.1377 13.1349 35.1688 19.1043C34.1998 25.0736 38.2534 30.6982 44.2228 31.6672C50.1921 32.6361 55.8167 28.5825 56.7857 22.6132Z" stroke="white" stroke-width="1.66803" stroke-linecap="round" stroke-linejoin="round"/>
<path d="M42.6438 18.6712C43.6158 18.6712 44.4038 17.8832 44.4038 16.9111C44.4038 15.9391 43.6158 15.1511 42.6438 15.1511C41.6718 15.1511 40.8838 15.9391 40.8838 16.9111C40.8838 17.8832 41.6718 18.6712 42.6438 18.6712Z" stroke="white" stroke-width="1.66803" stroke-linecap="round" stroke-linejoin="round"/>
<path d="M49.343 26.4243C50.315 26.4243 51.103 25.6364 51.103 24.6643C51.103 23.6923 50.315 22.9043 49.343 22.9043C48.371 22.9043 47.583 23.6923 47.583 24.6643C47.583 25.6364 48.371 26.4243 49.343 26.4243Z" stroke="white" stroke-width="1.66803" stroke-linecap="round" stroke-linejoin="round"/>
<path d="M50.1573 15.1511L41.892 26.5613" stroke="white" stroke-width="1.66803" stroke-linecap="round" stroke-linejoin="round"/>
</svg>
