<svg width="43" height="52" viewBox="0 0 43 52" fill="none" xmlns="http://www.w3.org/2000/svg">
<path d="M40.0748 25.7307V50.9599H3.18759V25.7307" stroke="white" stroke-width="1.5" stroke-linecap="round" stroke-linejoin="round"/>
<path d="M3.56293 16.8822H39.6993C40.7217 16.8822 41.5529 17.712 41.5529 18.7358V25.5935H1.70929V18.7358C1.70929 17.7134 2.53913 16.8822 3.56293 16.8822V16.8822Z" stroke="white" stroke-width="1.5" stroke-linecap="round" stroke-linejoin="round"/>
<path d="M20.8623 16.7783C16.2102 16.6772 11.4126 17.2203 7.23707 14.606C3.4425 12.2315 4.04237 8.22913 8.19298 6.86591C12.2979 5.51793 16.0149 8.67383 18.0985 11.9503C18.8868 13.1902 19.4783 14.534 20.1987 15.8072" stroke="white" stroke-width="1.5" stroke-linecap="round" stroke-linejoin="round"/>
<path d="M22.4001 16.7783C27.0522 16.6772 31.8498 17.2203 36.0253 14.606C39.8199 12.2315 39.22 8.22913 35.0694 6.86591C30.9645 5.51793 27.2475 8.67383 25.1639 11.9503C24.3756 13.1902 23.7841 14.534 23.0637 15.8072" stroke="white" stroke-width="1.5" stroke-linecap="round" stroke-linejoin="round"/>
<path d="M22.2116 16.7783C23.9198 14.2957 24.6028 10.8905 24.7524 8.16402C24.8369 6.60962 24.7953 0.993271 21.5411 0.993271C18.2868 0.993271 18.2439 6.60962 18.3298 8.16402C18.4794 10.8905 19.161 14.2957 20.8706 16.7783" stroke="white" stroke-width="1.5" stroke-linecap="round" stroke-linejoin="round"/>
<path d="M25.5433 25.5921V16.8822" stroke="white" stroke-width="1.5" stroke-linecap="round" stroke-linejoin="round"/>
<path d="M17.7189 16.8822V25.5921" stroke="white" stroke-width="1.5" stroke-linecap="round" stroke-linejoin="round"/>
<path d="M24.5166 43.3818V50.9599" stroke="white" stroke-width="1.5" stroke-linecap="round" stroke-linejoin="round"/>
<path d="M24.5166 25.7307V49.0951" stroke="white" stroke-width="1.5" stroke-linecap="round" stroke-linejoin="round"/>
<path d="M18.745 48.4191V25.7307" stroke="white" stroke-width="1.5" stroke-linecap="round" stroke-linejoin="round"/>
<path d="M18.745 50.9598V43.3818" stroke="white" stroke-width="1.5" stroke-linecap="round" stroke-linejoin="round"/>
</svg>
