<svg width="68" height="106" viewBox="0 0 68 106" fill="none" xmlns="http://www.w3.org/2000/svg">
<path d="M47.5644 59.3528L49.3186 58.0085C50.2955 57.2606 51.7222 57.7237 52.0709 58.9029L52.6991 61.0217C52.9253 61.783 53.6334 62.2994 54.4292 62.2781L56.6385 62.2222C57.871 62.1902 58.7493 63.404 58.3394 64.5646L57.6021 66.6488C57.3386 67.3967 57.6074 68.2325 58.2622 68.6824L60.0829 69.9361C61.0971 70.6335 61.0971 72.1321 60.0829 72.8321L58.2622 74.0858C57.6074 74.5357 57.3359 75.3688 57.6021 76.1195L58.3394 78.2036C58.7493 79.3642 57.8683 80.578 56.6385 80.546L54.4292 80.4901C53.636 80.4688 52.9253 80.9852 52.6991 81.7465L52.0709 83.8653C51.7195 85.0471 50.2955 85.5103 49.3186 84.7597L47.5644 83.4155C46.9336 82.931 46.0579 82.931 45.427 83.4155L43.6729 84.7597C42.696 85.5076 41.2693 85.0445 40.9206 83.8653L40.2924 81.7465C40.0661 80.9852 39.3581 80.4688 38.5622 80.4901L36.3529 80.546C35.1205 80.578 34.2421 79.3642 34.652 78.2036L35.3894 76.1195C35.6529 75.3715 35.384 74.5357 34.7292 74.0858L32.9086 72.8321C31.8944 72.1347 31.8944 70.6361 32.9086 69.9361L34.7292 68.6824C35.384 68.2325 35.6555 67.3994 35.3894 66.6488L34.652 64.5646C34.2421 63.404 35.1232 62.1902 36.3529 62.2222L38.5622 62.2781C39.3554 62.2994 40.0661 61.783 40.2924 61.0217L40.9206 58.9029C41.2719 57.7211 42.696 57.2579 43.6729 58.0085L45.427 59.3528C46.0579 59.8372 46.9336 59.8372 47.5644 59.3528V59.3528Z" stroke="#1F1F1F" stroke-width="3" stroke-linecap="round" stroke-linejoin="round"/>
<path d="M38.9136 89.3726H1.72559V2.35022H65.9629V89.3726H54.0806" stroke="#1F1F1F" stroke-width="3" stroke-linecap="round" stroke-linejoin="round"/>
<path d="M15.7534 17.8073H54.3123" stroke="#1F1F1F" stroke-width="3" stroke-linecap="round" stroke-linejoin="round"/>
<path d="M15.7534 31.8829H54.3123" stroke="#1F1F1F" stroke-width="3" stroke-linecap="round" stroke-linejoin="round"/>
<path d="M15.7534 45.9586H54.3123" stroke="#1F1F1F" stroke-width="3" stroke-linecap="round" stroke-linejoin="round"/>
<path d="M15.7534 60.0342H25.8869" stroke="#1F1F1F" stroke-width="3" stroke-linecap="round" stroke-linejoin="round"/>
<path d="M43.423 67.2024C44.312 66.5423 45.39 66.1856 46.4973 66.1856C49.3242 66.1856 51.6506 68.512 51.6506 71.3389C51.6506 74.1657 49.3242 76.4921 46.4973 76.4921C44.0831 76.4921 41.9776 74.7965 41.4639 72.4382" stroke="#1F1F1F" stroke-width="3" stroke-linecap="round" stroke-linejoin="round"/>
<path d="M54.0808 80.6605V103.722L46.4973 97.9968L38.9138 103.722V80.6605" stroke="#1F1F1F" stroke-width="3" stroke-linecap="round" stroke-linejoin="round"/>
</svg>
