<svg width="26" height="24" viewBox="0 0 26 24" fill="none" xmlns="http://www.w3.org/2000/svg">
<path d="M6.58728 14.0174V15.2111C6.58728 15.4293 6.76397 15.6058 6.98144 15.6058H8.2689C8.48684 15.6058 8.66306 15.4289 8.66306 15.2111V14.0174" stroke="#DEDEDE" stroke-width="0.6" stroke-linecap="round" stroke-linejoin="round"/>
<path d="M9.65983 10.7996C9.68655 11.1099 7.57093 10.5809 7.47391 10.2645C7.3769 9.94816 7.40314 9.14549 8.05882 9.14549C8.71451 9.14549 8.89917 9.39568 9.12554 9.63226C9.34769 9.86414 9.61156 10.2406 9.65983 10.8001V10.7996Z" stroke="#DEDEDE" stroke-width="0.6" stroke-linecap="round" stroke-linejoin="round"/>
<path d="M10.5461 10.3378H15.5877" stroke="#DEDEDE" stroke-width="0.6" stroke-linecap="round" stroke-linejoin="round"/>
<path d="M15.0211 11.4723H11.1128" stroke="#DEDEDE" stroke-width="0.6" stroke-linecap="round" stroke-linejoin="round"/>
<path d="M7.18379 7.52982C7.18379 7.82272 7.08818 7.93773 6.59326 7.93773C6.09833 7.93773 5.69714 7.70021 5.69714 7.40731C5.69714 7.11441 6.09833 6.87689 6.59326 6.87689C7.08818 6.87689 7.18379 7.23645 7.18379 7.52935V7.52982Z" stroke="#DEDEDE" stroke-width="0.6" stroke-linecap="round" stroke-linejoin="round"/>
<path d="M13.0672 7.55002H18.5474L17.3547 5.06551C17.2183 4.78106 16.9305 4.59987 16.6155 4.59987C16.6155 4.59987 14.8444 4.39709 13.0672 4.39709C11.2899 4.39709 9.51881 4.59987 9.51881 4.59987C9.20339 4.59987 8.91609 4.78106 8.7797 5.06551L7.58691 7.55002H13.0672Z" stroke="#DEDEDE" stroke-width="0.6" stroke-linecap="round" stroke-linejoin="round"/>
<path d="M18.5474 7.55003C18.8638 8.3405 19.2158 9.02347 19.623 9.54215C19.8625 9.84679 19.968 10.2369 19.9043 10.6194C19.736 11.6342 19.7126 12.6237 19.7093 13.5203C19.7083 13.7953 19.4853 14.0178 19.2101 14.0178H6.92372C6.6486 14.0178 6.42598 13.7953 6.42504 13.5198C6.42176 12.6148 6.39833 11.6366 6.23007 10.6199C6.1668 10.2373 6.27225 9.84726 6.51128 9.54262C6.91856 9.02394 7.27054 8.34143 7.5869 7.5505" stroke="#DEDEDE" stroke-width="0.6" stroke-linecap="round" stroke-linejoin="round"/>
<path d="M19.5466 14.0174V15.2111C19.5466 15.4293 19.3699 15.6058 19.1524 15.6058H17.865C17.647 15.6058 17.4708 15.4289 17.4708 15.2111V14.0174" stroke="#DEDEDE" stroke-width="0.6" stroke-linecap="round" stroke-linejoin="round"/>
<path d="M16.474 10.7996C16.4473 11.1099 18.5629 10.5809 18.6599 10.2645C18.7569 9.94816 18.7307 9.14549 18.075 9.14549C17.4193 9.14549 17.2347 9.39568 17.0083 9.63226C16.7861 9.86414 16.5223 10.2406 16.474 10.8001V10.7996Z" stroke="#DEDEDE" stroke-width="0.6" stroke-linecap="round" stroke-linejoin="round"/>
<path d="M18.0375 13.885C17.4708 13.4311 17.2163 12.7801 16.5091 12.7801H9.62468C8.91744 12.7801 8.66248 13.4311 8.09631 13.885" stroke="#DEDEDE" stroke-width="0.6" stroke-linecap="round" stroke-linejoin="round"/>
<path d="M18.9504 7.52982C18.9504 7.82272 19.0461 7.93773 19.541 7.93773C20.0359 7.93773 20.4371 7.70021 20.4371 7.40731C20.4371 7.11441 20.0359 6.87689 19.541 6.87689C19.0461 6.87689 18.9504 7.23645 18.9504 7.52935V7.52982Z" stroke="#DEDEDE" stroke-width="0.6" stroke-linecap="round" stroke-linejoin="round"/>
<path d="M12.9909 1.16183H23.6374C24.2934 1.16183 24.8222 1.69262 24.802 2.3484C24.7108 5.30731 24.3205 12.1286 23.1007 15.3814C21.6591 19.2258 17.4371 21.9748 12.9908 22.9657" stroke="#DEDEDE" stroke-width="0.8"/>
<path d="M13.101 1.16183H2.45456C1.79847 1.16183 1.26969 1.69262 1.28991 2.3484C1.38116 5.30731 1.77146 12.1286 2.99122 15.3814C4.43286 19.2258 8.65481 21.9748 13.1011 22.9657" stroke="#DEDEDE" stroke-width="0.8"/>
</svg>
