<svg width="43" height="51" viewBox="0 0 43 51" fill="none" xmlns="http://www.w3.org/2000/svg">
<path d="M33.6891 40.9297V44.0635C33.6891 45.0524 32.888 45.8535 31.8992 45.8535H11.0868C10.1662 45.8535 9.41859 45.107 9.41859 44.1853V27.4478" stroke="white" stroke-width="1.5" stroke-linecap="round" stroke-linejoin="round"/>
<path d="M9.41397 17.8097V3.39577C9.41397 2.40692 10.2151 1.60583 11.2039 1.60583H31.882C32.872 1.60583 33.6833 2.40579 33.6833 3.39577V17.8097" stroke="white" stroke-width="1.5" stroke-linecap="round" stroke-linejoin="round"/>
<path d="M29.0644 23.9925C30.0443 19.8406 27.4729 15.6805 23.3211 14.7006C19.1692 13.7206 15.0091 16.292 14.0292 20.4438C13.0493 24.5957 15.6206 28.7558 19.7725 29.7357C23.9243 30.7157 28.0845 28.1443 29.0644 23.9925Z" stroke="white" stroke-width="1.5" stroke-linecap="round" stroke-linejoin="round"/>
<path d="M28.119 1.60583L27.9518 3.25125C27.8744 3.99659 27.1404 4.57465 26.2506 4.57465H16.8344C15.9445 4.57465 15.2117 3.99659 15.1332 3.25125L14.9773 1.60583" stroke="white" stroke-width="1.5" stroke-linecap="round" stroke-linejoin="round"/>
<path d="M17.6126 40.6282H25.4733" stroke="white" stroke-width="1.5" stroke-linecap="round" stroke-linejoin="round"/>
<path d="M9.41971 27.4478C9.41971 27.4478 10.9912 27.3089 12.7174 23.3149C14.4436 19.3208 11.7854 16.245 10.4438 17.0473C9.10223 17.8484 0.837584 25.0468 0.969581 29.0921C1.10272 33.1373 5.74995 44.381 5.74995 44.381L3.48095 50.1115" stroke="white" stroke-width="1.5" stroke-linecap="round" stroke-linejoin="round"/>
<path d="M22.632 45.8535L22.1074 50.1116" stroke="white" stroke-width="1.5" stroke-linecap="round" stroke-linejoin="round"/>
<path d="M39.3638 16.2826C40.4995 17.4183 40.677 19.0978 39.7598 20.0593C35.2856 24.7532 32.1745 28.6164 29.6017 26.0436C27.6081 24.05 30.9808 20.4849 35.5518 15.9208C36.5043 14.9695 38.2111 15.131 39.3638 16.2838V16.2826Z" stroke="white" stroke-width="1.5" stroke-linecap="round" stroke-linejoin="round"/>
<path d="M39.456 24.4892C40.5223 25.5418 40.6861 27.0962 39.8236 27.9837C35.6088 32.3203 32.9199 36.1289 30.2628 33.506C28.2044 31.4737 31.568 28.3649 35.8716 24.1478C36.7694 23.2682 38.3739 23.4207 39.456 24.4881V24.4892Z" stroke="white" stroke-width="1.5" stroke-linecap="round" stroke-linejoin="round"/>
<path d="M39.2113 32.3078C40.1694 33.2534 40.3162 34.6485 39.5413 35.4462C35.7578 39.3401 33.3431 42.7606 30.9569 40.4052C29.1078 38.5811 32.129 35.7887 35.9933 32.0017C36.799 31.212 38.2395 31.3485 39.2113 32.3078V32.3078Z" stroke="white" stroke-width="1.5" stroke-linecap="round" stroke-linejoin="round"/>
<path d="M33.6834 9.27992C36.6203 6.26445 38.6891 4.31066 40.8386 6.46017C42.9244 8.54596 39.7769 11.6729 35.5518 15.9196" stroke="white" stroke-width="1.5" stroke-linecap="round" stroke-linejoin="round"/>
</svg>
