<svg width="84" height="105" viewBox="0 0 84 105" fill="none" xmlns="http://www.w3.org/2000/svg">
<path d="M79.498 52.1514V103.139H4.9502V52.1514" stroke="#1F1F1F" stroke-width="3" stroke-linecap="round" stroke-linejoin="round"/>
<path d="M5.70904 34.2689H78.7393C80.8056 34.2689 82.4855 35.946 82.4855 38.0151V51.8741H1.96289V38.0151C1.96289 35.9488 3.63998 34.2689 5.70904 34.2689V34.2689Z" stroke="#1F1F1F" stroke-width="3" stroke-linecap="round" stroke-linejoin="round"/>
<path d="M40.6706 34.0589C31.2688 33.8546 21.573 34.9521 13.1344 29.6688C5.46573 24.87 6.67805 16.7813 15.0663 14.0263C23.3621 11.3021 30.874 17.68 35.0849 24.3016C36.678 26.8074 37.8736 29.5232 39.3295 32.0963" stroke="#1F1F1F" stroke-width="3" stroke-linecap="round" stroke-linejoin="round"/>
<path d="M43.7778 34.0589C53.1796 33.8546 62.8753 34.9521 71.314 29.6688C78.9827 24.87 77.7703 16.7813 69.3821 14.0263C61.0863 11.3021 53.5744 17.68 49.3635 24.3016C47.7704 26.8074 46.5748 29.5232 45.1189 32.0963" stroke="#1F1F1F" stroke-width="3" stroke-linecap="round" stroke-linejoin="round"/>
<path d="M43.3971 34.059C46.8493 29.0417 48.2296 22.1598 48.532 16.6497C48.7028 13.5083 48.6188 2.1579 42.042 2.1579C35.4652 2.1579 35.3785 13.5083 35.552 16.6497C35.8544 22.1598 37.2319 29.0417 40.6869 34.059" stroke="#1F1F1F" stroke-width="3" stroke-linecap="round" stroke-linejoin="round"/>
<path d="M50.1304 51.8713V34.2689" stroke="#1F1F1F" stroke-width="3" stroke-linecap="round" stroke-linejoin="round"/>
<path d="M34.3179 34.2689V51.8713" stroke="#1F1F1F" stroke-width="3" stroke-linecap="round" stroke-linejoin="round"/>
<path d="M48.0557 87.8238V103.139" stroke="#1F1F1F" stroke-width="3" stroke-linecap="round" stroke-linejoin="round"/>
<path d="M48.0557 52.1514V99.3702" stroke="#1F1F1F" stroke-width="3" stroke-linecap="round" stroke-linejoin="round"/>
<path d="M36.3916 98.0039V52.1514" stroke="#1F1F1F" stroke-width="3" stroke-linecap="round" stroke-linejoin="round"/>
<path d="M36.3916 103.139V87.8238" stroke="#1F1F1F" stroke-width="3" stroke-linecap="round" stroke-linejoin="round"/>
</svg>
