<svg width="48" height="47" viewBox="0 0 48 47" fill="none" xmlns="http://www.w3.org/2000/svg">
<path d="M20.802 23.8767C25.9686 23.8767 30.1569 19.6883 30.1569 14.5218C30.1569 9.35516 25.9686 5.16681 20.802 5.16681C15.6354 5.16681 11.447 9.35516 11.447 14.5218C11.447 19.6883 15.6354 23.8767 20.802 23.8767Z" stroke="#474747" stroke-width="1.5" stroke-linecap="round" stroke-linejoin="round"/>
<path d="M46.6435 32.6534C46.6435 32.6534 39.5401 28.2836 36.383 27.8105C34.8327 27.5779 30.7226 27.5948 26.5166 28.0759C22.1581 28.5738 17.698 29.2039 15.8857 29.4263C12.0184 29.8994 12.6371 34.8259 16.1883 34.7751C18.7187 34.7389 28.8053 34.6712 28.8053 34.6712" stroke="#474747" stroke-width="1.5" stroke-linecap="round" stroke-linejoin="round"/>
<path d="M45.6958 44.4158C42.4992 42.8914 41.4333 42.6543 37.4079 43.4458C32.932 44.3254 23.1378 46.1275 20.8016 46.2066C18.4643 46.2856 15.2316 44.1798 12.3082 41.55C9.94042 39.4193 7.33549 37.4456 5.2048 35.3939C3.07411 33.3423 0.706299 31.2104 1.17941 30.0271C1.72027 28.6733 3.86338 28.2905 6.54622 29.79C9.23019 31.2895 10.7918 32.4367 11.913 33.3976C13.0185 34.3449 16.2546 36.0161 18.4643 38.1569C20.516 36.8053 22.8454 34.949 25.4492 34.713" stroke="#474747" stroke-width="1.5" stroke-linecap="round" stroke-linejoin="round"/>
<path d="M3.31151 28.8427C3.31151 28.8427 2.76614 25.7104 6.54763 26.791C9.31064 27.5803 11.9144 29.8691 11.9144 29.8691" stroke="#474747" stroke-width="1.5" stroke-linecap="round" stroke-linejoin="round"/>
<path d="M12.8029 19.3804C9.0225 18.179 6.2832 14.6414 6.2832 10.4624C6.28207 5.29547 10.4712 1.10748 15.6381 1.10748C19.0041 1.10748 21.9546 2.88475 23.602 5.55179" stroke="#474747" stroke-width="1.5" stroke-linecap="round" stroke-linejoin="round"/>
<path d="M20.9001 9.63815C21.6182 9.63815 22.2426 9.72848 22.7722 9.90802C23.3017 10.0876 23.7116 10.336 24.0029 10.651C24.2943 10.9672 24.5077 11.3115 24.6443 11.6853C24.7798 12.059 24.8487 12.47 24.8487 12.9161C24.8487 13.8386 24.519 14.6199 23.8584 15.2613C23.208 15.9026 22.2946 16.2222 21.1202 16.2222C20.5274 16.2222 20.086 16.2075 19.7946 16.1781V19.0913C19.7946 19.3341 19.7077 19.543 19.5327 19.718C19.3577 19.893 19.1488 19.98 18.906 19.98C18.6632 19.98 18.4397 19.8953 18.2646 19.7248C18.0896 19.5543 18.0027 19.3443 18.0027 19.0913V10.555C18.0027 10.3123 18.0874 10.1034 18.2579 9.92834C18.4272 9.75333 18.6384 9.66074 18.8913 9.6517C19.2989 9.6517 19.6637 9.64719 19.9843 9.63702H20.9023L20.9001 9.63815ZM19.7935 11.342V14.4731C20.3084 14.5217 20.7307 14.5465 21.0604 14.5465C21.6329 14.5465 22.0924 14.4054 22.4368 14.1242C22.7812 13.8431 22.954 13.4343 22.954 12.9002C22.954 11.8422 22.3273 11.3127 21.0751 11.3127L19.7935 11.342Z" fill="#474747"/>
<rect x="18.8027" y="16.7373" width="3.66327" height="1.39224" rx="0.696121" fill="#474747"/>
</svg>
