<svg width="48" height="48" viewBox="0 0 48 48" fill="none" xmlns="http://www.w3.org/2000/svg">
<path d="M21.0801 24.1354C26.2467 24.1354 30.4351 19.9471 30.4351 14.7805C30.4351 9.61389 26.2467 5.42554 21.0801 5.42554C15.9135 5.42554 11.7252 9.61389 11.7252 14.7805C11.7252 19.9471 15.9135 24.1354 21.0801 24.1354Z" stroke="white" stroke-width="1.5" stroke-linecap="round" stroke-linejoin="round"/>
<path d="M46.9216 32.9121C46.9216 32.9121 39.8181 28.5423 36.661 28.0692C35.1107 27.8366 31.0007 27.8535 26.7946 28.3345C22.4361 28.8325 17.976 29.4626 16.1637 29.685C12.2964 30.1581 12.9152 35.0846 16.4663 35.0338C18.9967 34.9976 29.0834 34.9299 29.0834 34.9299" stroke="white" stroke-width="1.5" stroke-linecap="round" stroke-linejoin="round"/>
<path d="M45.974 44.6744C42.7774 43.1501 41.7115 42.913 37.6861 43.7045C33.2102 44.5841 23.416 46.3862 21.0798 46.4652C18.7425 46.5443 15.5097 44.4384 12.5864 41.8087C10.2186 39.678 7.61363 37.7042 5.48294 35.6526C3.35225 33.6009 0.984436 31.4691 1.45755 30.2858C1.99841 28.9319 4.14152 28.5491 6.82436 30.0486C9.50833 31.5481 11.0699 32.6954 12.1912 33.6563C13.2966 34.6036 16.5327 36.2747 18.7425 38.4156C20.7941 37.064 23.1235 35.2077 25.7273 34.9717" stroke="white" stroke-width="1.5" stroke-linecap="round" stroke-linejoin="round"/>
<path d="M3.58974 29.1014C3.58974 29.1014 3.04437 25.9692 6.82586 27.0498C9.58887 27.839 12.1927 30.1278 12.1927 30.1278" stroke="white" stroke-width="1.5" stroke-linecap="round" stroke-linejoin="round"/>
<path d="M13.081 19.6391C9.30061 18.4377 6.56131 14.9001 6.56131 10.7212C6.56018 5.5542 10.7493 1.36621 15.9163 1.36621C19.2822 1.36621 22.2327 3.14348 23.8801 5.81051" stroke="white" stroke-width="1.5" stroke-linecap="round" stroke-linejoin="round"/>
</svg>
