<svg width="58" height="54" viewBox="0 0 58 54" fill="none" xmlns="http://www.w3.org/2000/svg">
<path d="M23.4539 38.6359H5.98818C5.07911 38.6359 4.3428 39.3722 4.3428 40.2813V43.1429C4.3428 44.0519 5.07911 44.7882 5.98818 44.7882H28.1885" stroke="#1F1F1F" stroke-width="1.5" stroke-linecap="round" stroke-linejoin="round"/>
<path d="M22.3748 32.4863H5.98818C5.07911 32.4863 4.3428 33.2226 4.3428 34.1317V37.166C4.3428 37.9791 5.00233 38.6387 5.81542 38.6387" stroke="#1F1F1F" stroke-width="1.5" stroke-linecap="round" stroke-linejoin="round"/>
<path d="M24.0352 26.3271H4.43328C3.52421 26.3271 2.7879 27.0634 2.7879 27.9725V30.8341C2.7879 31.7431 3.52421 32.4794 4.43328 32.4794H5.8154" stroke="#1F1F1F" stroke-width="1.5" stroke-linecap="round" stroke-linejoin="round"/>
<path d="M30.1711 20.1693H5.98818C5.07911 20.1693 4.3428 20.9056 4.3428 21.8147V24.849C4.3428 25.6621 5.00233 26.3216 5.81542 26.3216" stroke="#1F1F1F" stroke-width="1.5" stroke-linecap="round" stroke-linejoin="round"/>
<path d="M31.3983 19.5852C31.5889 19.337 31.7013 19.0271 31.7013 18.6898V15.6555C31.7013 14.7464 30.965 14.0101 30.0559 14.0101H4.43328C3.52421 14.0101 2.7879 14.7464 2.7879 15.6555V18.5171C2.7879 19.4261 3.52421 20.1624 4.43328 20.1624H5.56585" stroke="#1F1F1F" stroke-width="1.5" stroke-linecap="round" stroke-linejoin="round"/>
<path d="M2.87842 14.0033L28.5024 14.0033C29.4112 14.0033 30.1478 13.2666 30.1478 12.3579V9.49629C30.1478 8.58757 29.4112 7.85091 28.5024 7.85091L2.87842 7.85091C1.9697 7.85091 1.23304 8.58757 1.23304 9.49629V12.3579C1.23304 13.2666 1.9697 14.0033 2.87842 14.0033Z" stroke="#1F1F1F" stroke-width="1.5" stroke-linecap="round" stroke-linejoin="round"/>
<path d="M5.98655 7.84542L31.6106 7.84542C32.5193 7.84542 33.256 7.10876 33.256 6.20005V3.33846C33.256 2.42974 32.5193 1.69308 31.6106 1.69308L5.98655 1.69308C5.07783 1.69308 4.34117 2.42974 4.34117 3.33846V6.20005C4.34117 7.10876 5.07783 7.84542 5.98655 7.84542Z" stroke="#1F1F1F" stroke-width="1.5" stroke-linecap="round" stroke-linejoin="round"/>
<path d="M47.3662 43.4591C53.0834 37.7419 53.0834 28.4726 47.3662 22.7554C41.649 17.0382 32.3796 17.0382 26.6624 22.7554C20.9453 28.4726 20.9453 37.7419 26.6624 43.4591C32.3796 49.1763 41.649 49.1763 47.3662 43.4591Z" stroke="#1F1F1F" stroke-width="1.5" stroke-linecap="round" stroke-linejoin="round"/>
<path d="M25.967 35.3809C25.8162 34.6473 25.738 33.8863 25.738 33.1089C25.738 29.995 26.9995 27.1759 29.0411 25.1356" stroke="#1F1F1F" stroke-width="1.5" stroke-linecap="round" stroke-linejoin="round"/>
<path d="M32.2362 22.891C33.6869 22.2109 35.3062 21.8311 37.0133 21.8311C43.2411 21.8311 48.2896 26.8797 48.2896 33.1075C48.2896 39.3352 43.2411 44.3838 37.0133 44.3838C32.6928 44.3838 28.9386 41.9527 27.0464 38.385" stroke="#1F1F1F" stroke-width="1.5" stroke-linecap="round" stroke-linejoin="round"/>
<path d="M37.0652 27.1764C37.889 27.1764 38.6053 27.28 39.2128 27.486C39.8202 27.6919 40.2904 27.9769 40.6246 28.3383C40.9588 28.7009 41.2036 29.096 41.3603 29.5247C41.5158 29.9535 41.5948 30.4249 41.5948 30.9366C41.5948 31.9948 41.2165 32.8911 40.4588 33.6269C39.7127 34.3626 38.6649 34.7291 37.3178 34.7291C36.6378 34.7291 36.1313 34.7123 35.7971 34.6786V38.0204C35.7971 38.2989 35.6974 38.5385 35.4966 38.7393C35.2959 38.9401 35.0562 39.0398 34.7778 39.0398C34.4993 39.0398 34.2428 38.9426 34.0421 38.7471C33.8413 38.5515 33.7415 38.3106 33.7415 38.0204V28.2282C33.7415 27.9497 33.8387 27.7101 34.0343 27.5093C34.2286 27.3085 34.4708 27.2023 34.7609 27.192C35.2285 27.192 35.6469 27.1868 36.0147 27.1751H37.0678L37.0652 27.1764ZM35.7958 29.131V32.7228C36.3865 32.7785 36.8709 32.8069 37.2491 32.8069C37.9058 32.8069 38.433 32.645 38.8281 32.3225C39.2231 32 39.4213 31.5311 39.4213 30.9184C39.4213 29.7048 38.7024 29.0973 37.266 29.0973L35.7958 29.131Z" fill="#1F1F1F"/>
<rect x="34.6589" y="35.32" width="4.20224" height="1.59708" rx="0.798539" fill="#1F1F1F"/>
</svg>
