<svg width="50" height="46" viewBox="0 0 50 46" fill="none" xmlns="http://www.w3.org/2000/svg">
<path d="M22.114 36.3131H5.21381C4.33417 36.3131 3.6217 37.0265 3.6217 37.9073V40.6799C3.6217 41.5607 4.33417 42.2741 5.21381 42.2741H26.6953" stroke="black" stroke-linecap="round" stroke-linejoin="round"/>
<path d="M21.0698 30.3548H5.21381C4.33417 30.3548 3.6217 31.0682 3.6217 31.949V34.8889C3.6217 35.6768 4.25987 36.3157 5.04662 36.3157" stroke="black" stroke-linecap="round" stroke-linejoin="round"/>
<path d="M22.6766 24.3871H3.70929C2.82965 24.3871 2.11719 25.1005 2.11719 25.9813V28.7539C2.11719 29.6347 2.82965 30.3481 3.70929 30.3481H5.04664" stroke="black" stroke-linecap="round" stroke-linejoin="round"/>
<path d="M28.6138 18.4208H5.21381C4.33417 18.4208 3.6217 19.1342 3.6217 20.0151V22.955C3.6217 23.7428 4.25987 24.3818 5.04662 24.3818" stroke="black" stroke-linecap="round" stroke-linejoin="round"/>
<path d="M29.8013 17.8549C29.9857 17.6144 30.0945 17.3142 30.0945 16.9873V14.0473C30.0945 13.1666 29.382 12.4532 28.5024 12.4532H3.70929C2.82965 12.4532 2.11719 13.1666 2.11719 14.0473V16.8199C2.11719 17.7007 2.82965 18.4141 3.70929 18.4141H4.80518" stroke="black" stroke-linecap="round" stroke-linejoin="round"/>
<path d="M2.20472 12.4466H26.9991C27.8784 12.4466 28.5913 11.7328 28.5913 10.8524V8.07979C28.5913 7.19934 27.8784 6.48557 26.9991 6.48557H2.20472C1.32542 6.48557 0.61261 7.19934 0.61261 8.07979V10.8524C0.61261 11.7328 1.32542 12.4466 2.20472 12.4466Z" stroke="black" stroke-linecap="round" stroke-linejoin="round"/>
<path d="M5.21239 6.4802H30.0068C30.8861 6.4802 31.5989 5.76647 31.5989 4.88603V2.11343C31.5989 1.23298 30.8861 0.519226 30.0068 0.519226H5.21239C4.33311 0.519226 3.6203 1.23298 3.6203 2.11343V4.88603C3.6203 5.76647 4.33311 6.4802 5.21239 6.4802Z" stroke="black" stroke-linecap="round" stroke-linejoin="round"/>
<path d="M45.2521 40.9863C50.7842 35.4469 50.7842 26.4658 45.2521 20.9265C39.72 15.3871 30.7508 15.3871 25.2187 20.9265C19.6866 26.4659 19.6866 35.4469 25.2187 40.9863C30.7508 46.5257 39.72 46.5257 45.2521 40.9863Z" stroke="black" stroke-linecap="round" stroke-linejoin="round"/>
<path d="M24.546 33.1592C24.4001 32.4485 24.3244 31.7112 24.3244 30.9579C24.3244 27.9409 25.545 25.2095 27.5206 23.2327" stroke="black" stroke-linecap="round" stroke-linejoin="round"/>
<path d="M30.6121 21.058C32.0158 20.399 33.5827 20.031 35.2345 20.031C41.2606 20.031 46.1458 24.9225 46.1458 30.9566C46.1458 36.9907 41.2606 41.8822 35.2345 41.8822C31.0539 41.8822 27.4212 39.5268 25.5903 36.07" stroke="black" stroke-linecap="round" stroke-linejoin="round"/>
<path d="M35.2846 25.21C36.0817 25.21 36.7748 25.3104 37.3626 25.5099C37.9504 25.7095 38.4054 25.9855 38.7288 26.3357C39.0521 26.6871 39.289 27.0699 39.4406 27.4853C39.591 27.9006 39.6675 28.3575 39.6675 28.8532C39.6675 29.8785 39.3015 30.747 38.5683 31.4598C37.8464 32.1726 36.8325 32.5278 35.529 32.5278C34.871 32.5278 34.3809 32.5114 34.0575 32.4788V35.7167C34.0575 35.9865 33.961 36.2187 33.7668 36.4132C33.5726 36.6077 33.3406 36.7044 33.0712 36.7044C32.8018 36.7044 32.5536 36.6102 32.3593 36.4207C32.165 36.2312 32.0685 35.9978 32.0685 35.7167V26.229C32.0685 25.9592 32.1625 25.727 32.3518 25.5325C32.5398 25.338 32.7741 25.2351 33.0549 25.225C33.5074 25.225 33.9122 25.22 34.2681 25.2087H35.2871L35.2846 25.21ZM34.0563 27.1038V30.5838C34.6278 30.6377 35.0966 30.6654 35.4626 30.6654C36.098 30.6654 36.6081 30.5085 36.9903 30.196C37.3727 29.8835 37.5644 29.4292 37.5644 28.8356C37.5644 27.6597 36.8688 27.0711 35.4788 27.0711L34.0563 27.1038Z" fill="black"/>
</svg>
