<svg width="43" height="51" viewBox="0 0 43 51" fill="none" xmlns="http://www.w3.org/2000/svg">
<path d="M34.411 40.671V43.8048C34.411 44.7936 33.6099 45.5947 32.6211 45.5947H11.8087C10.8881 45.5947 10.1405 44.8483 10.1405 43.9266V27.189" stroke="#000000" stroke-width="1.5" stroke-linecap="round" stroke-linejoin="round"/>
<path d="M10.1359 17.5509V3.13698C10.1359 2.14814 10.937 1.34705 11.9258 1.34705H32.6039C33.5939 1.34705 34.4052 2.147 34.4052 3.13698V17.5509" stroke="#000000" stroke-width="1.5" stroke-linecap="round" stroke-linejoin="round"/>
<path d="M29.7863 23.7337C30.7662 19.5818 28.1949 15.4217 24.043 14.4418C19.8912 13.4618 15.731 16.0332 14.7511 20.185C13.7712 24.3369 16.3425 28.497 20.4944 29.4769C24.6462 30.4569 28.8064 27.8855 29.7863 23.7337Z" stroke="#000000" stroke-width="1.5" stroke-linecap="round" stroke-linejoin="round"/>
<path d="M28.841 1.34705L28.6737 2.99247C28.5963 3.7378 27.8624 4.31586 26.9725 4.31586H17.5563C16.6664 4.31586 15.9336 3.7378 15.8551 2.99247L15.6992 1.34705" stroke="#000000" stroke-width="1.5" stroke-linecap="round" stroke-linejoin="round"/>
<path d="M18.3346 40.3694H26.1953" stroke="#000000" stroke-width="1.5" stroke-linecap="round" stroke-linejoin="round"/>
<path d="M10.1416 27.189C10.1416 27.189 11.7131 27.0502 13.4393 23.0561C15.1655 19.062 12.5074 15.9862 11.1658 16.7885C9.82416 17.5896 1.55951 24.788 1.69151 28.8333C1.82464 32.8785 6.47187 44.1222 6.47187 44.1222L4.20287 49.8528" stroke="#000000" stroke-width="1.5" stroke-linecap="round" stroke-linejoin="round"/>
<path d="M23.3539 45.5947L22.8293 49.8528" stroke="#000000" stroke-width="1.5" stroke-linecap="round" stroke-linejoin="round"/>
<path d="M40.0858 16.0238C41.2214 17.1595 41.3989 18.839 40.4818 19.8006C36.0075 24.4944 32.8964 28.3576 30.3236 25.7848C28.33 23.7912 31.7028 20.2261 36.2738 15.662C37.2262 14.7107 38.9331 14.8723 40.0858 16.025V16.0238Z" stroke="#000000" stroke-width="1.5" stroke-linecap="round" stroke-linejoin="round"/>
<path d="M40.1779 24.2304C41.2441 25.283 41.408 26.8374 40.5455 27.7249C36.3306 32.0615 33.6417 35.8701 30.9847 33.2472C28.9262 31.2149 32.2899 28.1061 36.5935 23.889C37.4913 23.0094 39.0958 23.1619 40.1779 24.2293V24.2304Z" stroke="#000000" stroke-width="1.5" stroke-linecap="round" stroke-linejoin="round"/>
<path d="M39.9332 32.049C40.8913 32.9946 41.0381 34.3897 40.2632 35.1874C36.4797 39.0813 34.065 42.5019 31.6788 40.1464C29.8297 38.3223 32.8509 35.5299 36.7152 31.7429C37.5208 30.9532 38.9614 31.0897 39.9332 32.049V32.049Z" stroke="#000000" stroke-width="1.5" stroke-linecap="round" stroke-linejoin="round"/>
<path d="M34.4053 9.02113C37.3422 6.00566 39.4109 4.05187 41.5605 6.20138C43.6462 8.28717 40.4988 11.4142 36.2737 15.6608" stroke="#000000" stroke-width="1.5" stroke-linecap="round" stroke-linejoin="round"/>
<path d="M22.3038 16.6617C23.0219 16.6617 23.6463 16.752 24.1759 16.9315C24.7054 17.1111 25.1153 17.3595 25.4066 17.6745C25.698 17.9907 25.9114 18.335 26.048 18.7088C26.1835 19.0825 26.2524 19.4935 26.2524 19.9396C26.2524 20.8621 25.9227 21.6434 25.2621 22.2848C24.6117 22.9261 23.6982 23.2457 22.5239 23.2457C21.9311 23.2457 21.4896 23.231 21.1983 23.2016V26.1148C21.1983 26.3576 21.1114 26.5665 20.9364 26.7415C20.7613 26.9165 20.5525 27.0035 20.3097 27.0035C20.0669 27.0035 19.8434 26.9188 19.6683 26.7483C19.4933 26.5778 19.4064 26.3678 19.4064 26.1148V17.5785C19.4064 17.3357 19.4911 17.1269 19.6616 16.9518C19.8309 16.7768 20.0421 16.6842 20.295 16.6752C20.7026 16.6752 21.0673 16.6707 21.388 16.6605H22.306L22.3038 16.6617ZM21.1972 18.3655V21.4966C21.7121 21.5452 22.1344 21.57 22.4641 21.57C23.0366 21.57 23.4961 21.4289 23.8405 21.1477C24.1849 20.8666 24.3577 20.4578 24.3577 19.9237C24.3577 18.8657 23.731 18.3362 22.4788 18.3362L21.1972 18.3655Z" fill="#000000"/>
<rect x="20.2064" y="23.7607" width="3.66327" height="1.39224" rx="0.696121" fill="#000000"/>
</svg>
