<svg width="60" height="30" viewBox="0 0 1166 322" fill="none" xmlns="http://www.w3.org/2000/svg">
<path d="M514.882 187.951C513.105 187.951 511.456 187.678 509.933 187.131C508.432 186.564 507.121 185.766 506 184.736C504.9 183.707 504.044 182.489 503.431 181.081C502.817 179.674 502.511 178.119 502.511 176.417C502.511 174.716 502.817 173.161 503.431 171.753C504.044 170.346 504.9 169.127 506 168.098C507.121 167.069 508.432 166.281 509.933 165.735C511.456 165.167 513.105 164.884 514.882 164.884C517.06 164.884 518.984 165.262 520.655 166.018C522.346 166.775 523.742 167.867 524.842 169.295L520.115 173.487C519.46 172.667 518.73 172.037 517.927 171.596C517.144 171.134 516.256 170.903 515.262 170.903C514.48 170.903 513.771 171.029 513.137 171.281C512.503 171.533 511.953 171.901 511.488 172.384C511.043 172.867 510.695 173.455 510.441 174.148C510.187 174.821 510.06 175.577 510.06 176.417C510.06 177.258 510.187 178.024 510.441 178.718C510.695 179.39 511.043 179.968 511.488 180.451C511.953 180.934 512.503 181.302 513.137 181.554C513.771 181.806 514.48 181.932 515.262 181.932C516.256 181.932 517.144 181.711 517.927 181.27C518.73 180.808 519.46 180.167 520.115 179.348L524.842 183.539C523.742 184.947 522.346 186.039 520.655 186.816C518.984 187.573 517.06 187.951 514.882 187.951ZM535.695 187.447V184.39L535.188 183.571V177.772C535.188 176.932 534.923 176.291 534.395 175.85C533.887 175.409 533.052 175.188 531.889 175.188C531.106 175.188 530.313 175.314 529.51 175.566C528.706 175.798 528.019 176.123 527.448 176.543L525.164 171.848C526.179 171.218 527.395 170.735 528.812 170.398C530.229 170.062 531.614 169.894 532.967 169.894C535.949 169.894 538.254 170.556 539.882 171.879C541.532 173.203 542.356 175.304 542.356 178.182V187.447H535.695ZM530.779 187.762C529.362 187.762 528.178 187.52 527.226 187.037C526.274 186.554 525.555 185.913 525.069 185.115C524.583 184.295 524.339 183.392 524.339 182.405C524.339 181.291 524.625 180.346 525.196 179.568C525.767 178.791 526.634 178.203 527.797 177.804C528.981 177.405 530.472 177.205 532.269 177.205H535.886V180.64H533.411C532.65 180.64 532.09 180.766 531.73 181.018C531.392 181.249 531.223 181.606 531.223 182.089C531.223 182.489 531.371 182.825 531.667 183.098C531.984 183.35 532.407 183.476 532.936 183.476C533.422 183.476 533.866 183.35 534.268 183.098C534.691 182.825 534.997 182.405 535.188 181.837L536.108 183.949C535.833 185.23 535.251 186.186 534.363 186.816C533.475 187.447 532.28 187.762 530.779 187.762ZM543.868 187.447V170.209H550.688V175.409L549.578 173.928C550.107 172.583 550.953 171.575 552.116 170.903C553.279 170.23 554.674 169.894 556.303 169.894V176.197C555.986 176.155 555.7 176.123 555.446 176.102C555.214 176.081 554.97 176.071 554.717 176.071C553.638 176.071 552.75 176.354 552.052 176.921C551.376 177.468 551.037 178.424 551.037 179.789V187.447H543.868ZM563.535 187.762C562.055 187.762 560.595 187.604 559.158 187.289C557.72 186.974 556.556 186.564 555.668 186.06L557.635 181.365C558.46 181.848 559.411 182.226 560.49 182.499C561.589 182.772 562.657 182.909 563.694 182.909C564.561 182.909 565.142 182.835 565.438 182.688C565.755 182.541 565.914 182.342 565.914 182.089C565.914 181.837 565.734 181.659 565.375 181.554C565.015 181.428 564.539 181.333 563.947 181.27C563.355 181.207 562.7 181.134 561.981 181.05C561.283 180.945 560.574 180.797 559.855 180.608C559.136 180.419 558.481 180.136 557.889 179.758C557.297 179.379 556.821 178.875 556.461 178.245C556.102 177.594 555.922 176.774 555.922 175.787C555.922 174.695 556.25 173.707 556.905 172.825C557.582 171.943 558.576 171.239 559.887 170.714C561.219 170.167 562.858 169.894 564.804 169.894C566.073 169.894 567.341 170.01 568.61 170.241C569.879 170.472 570.968 170.829 571.877 171.312L569.911 176.008C569.022 175.524 568.145 175.199 567.278 175.031C566.432 174.842 565.639 174.747 564.899 174.747C563.99 174.747 563.366 174.831 563.027 174.999C562.71 175.167 562.552 175.356 562.552 175.566C562.552 175.819 562.731 176.008 563.091 176.134C563.45 176.26 563.926 176.354 564.518 176.417C565.11 176.48 565.755 176.564 566.453 176.669C567.172 176.753 567.881 176.9 568.578 177.111C569.297 177.3 569.953 177.583 570.545 177.961C571.137 178.339 571.613 178.854 571.972 179.505C572.332 180.136 572.512 180.945 572.512 181.932C572.512 182.961 572.184 183.928 571.528 184.831C570.873 185.713 569.879 186.428 568.547 186.974C567.214 187.499 565.544 187.762 563.535 187.762Z" fill="white"/>
<path d="M581.242 187.447V165.389H593.106C596.172 165.389 598.434 165.935 599.894 167.027C601.353 168.099 602.082 169.475 602.082 171.155C602.082 172.269 601.765 173.267 601.131 174.149C600.517 175.01 599.619 175.693 598.434 176.197C597.25 176.702 595.791 176.954 594.057 176.954L594.691 175.252C596.426 175.252 597.916 175.494 599.164 175.977C600.433 176.46 601.406 177.164 602.082 178.088C602.78 178.991 603.129 180.084 603.129 181.365C603.129 183.277 602.326 184.769 600.718 185.84C599.132 186.912 596.806 187.447 593.74 187.447H581.242ZM588.601 182.248H593.106C593.93 182.248 594.543 182.101 594.945 181.807C595.368 181.512 595.58 181.082 595.58 180.515C595.58 179.947 595.368 179.517 594.945 179.223C594.543 178.928 593.93 178.781 593.106 178.781H588.094V173.865H592.09C592.936 173.865 593.55 173.729 593.93 173.456C594.332 173.162 594.533 172.752 594.533 172.227C594.533 171.681 594.332 171.271 593.93 170.998C593.55 170.725 592.936 170.588 592.09 170.588H588.601V182.248ZM613.134 187.762C611.167 187.762 609.423 187.384 607.9 186.628C606.399 185.851 605.215 184.79 604.348 183.445C603.481 182.101 603.047 180.557 603.047 178.813C603.047 177.069 603.481 175.525 604.348 174.181C605.215 172.836 606.399 171.786 607.9 171.029C609.423 170.273 611.167 169.895 613.134 169.895C615.101 169.895 616.845 170.273 618.368 171.029C619.89 171.786 621.075 172.836 621.921 174.181C622.788 175.525 623.221 177.069 623.221 178.813C623.221 180.557 622.788 182.101 621.921 183.445C621.075 184.79 619.89 185.851 618.368 186.628C616.845 187.384 615.101 187.762 613.134 187.762ZM613.134 182.216C613.663 182.216 614.139 182.09 614.562 181.838C614.984 181.586 615.323 181.208 615.577 180.704C615.83 180.178 615.957 179.548 615.957 178.813C615.957 178.057 615.83 177.437 615.577 176.954C615.323 176.449 614.984 176.071 614.562 175.819C614.139 175.567 613.663 175.441 613.134 175.441C612.605 175.441 612.13 175.567 611.707 175.819C611.284 176.071 610.945 176.449 610.692 176.954C610.438 177.437 610.311 178.057 610.311 178.813C610.311 179.548 610.438 180.178 610.692 180.704C610.945 181.208 611.284 181.586 611.707 181.838C612.13 182.09 612.605 182.216 613.134 182.216ZM633.046 187.762C631.08 187.762 629.335 187.384 627.813 186.628C626.311 185.851 625.127 184.79 624.26 183.445C623.393 182.101 622.959 180.557 622.959 178.813C622.959 177.069 623.393 175.525 624.26 174.181C625.127 172.836 626.311 171.786 627.813 171.029C629.335 170.273 631.08 169.895 633.046 169.895C635.013 169.895 636.758 170.273 638.28 171.029C639.803 171.786 640.987 172.836 641.833 174.181C642.7 175.525 643.133 177.069 643.133 178.813C643.133 180.557 642.7 182.101 641.833 183.445C640.987 184.79 639.803 185.851 638.28 186.628C636.758 187.384 635.013 187.762 633.046 187.762ZM633.046 182.216C633.575 182.216 634.051 182.09 634.474 181.838C634.897 181.586 635.235 181.208 635.489 180.704C635.743 180.178 635.869 179.548 635.869 178.813C635.869 178.057 635.743 177.437 635.489 176.954C635.235 176.449 634.897 176.071 634.474 175.819C634.051 175.567 633.575 175.441 633.046 175.441C632.518 175.441 632.042 175.567 631.619 175.819C631.196 176.071 630.858 176.449 630.604 176.954C630.35 177.437 630.223 178.057 630.223 178.813C630.223 179.548 630.35 180.178 630.604 180.704C630.858 181.208 631.196 181.586 631.619 181.838C632.042 182.09 632.518 182.216 633.046 182.216ZM650.58 187.762C649.099 187.762 647.64 187.605 646.202 187.29C644.764 186.975 643.601 186.565 642.713 186.061L644.68 181.365C645.504 181.849 646.456 182.227 647.535 182.5C648.634 182.773 649.702 182.909 650.738 182.909C651.605 182.909 652.187 182.836 652.483 182.689C652.8 182.542 652.959 182.342 652.959 182.09C652.959 181.838 652.779 181.659 652.419 181.554C652.06 181.428 651.584 181.334 650.992 181.271C650.4 181.208 649.744 181.134 649.025 181.05C648.328 180.945 647.619 180.798 646.9 180.609C646.181 180.42 645.526 180.136 644.933 179.758C644.341 179.38 643.866 178.876 643.506 178.246C643.147 177.594 642.967 176.775 642.967 175.788C642.967 174.695 643.295 173.708 643.95 172.826C644.627 171.943 645.621 171.239 646.932 170.714C648.264 170.168 649.903 169.895 651.848 169.895C653.117 169.895 654.386 170.01 655.655 170.242C656.924 170.473 658.013 170.83 658.922 171.313L656.955 176.008C656.067 175.525 655.19 175.199 654.323 175.031C653.477 174.842 652.684 174.748 651.944 174.748C651.034 174.748 650.41 174.832 650.072 175C649.755 175.168 649.596 175.357 649.596 175.567C649.596 175.819 649.776 176.008 650.136 176.134C650.495 176.26 650.971 176.355 651.563 176.418C652.155 176.481 652.8 176.565 653.498 176.67C654.217 176.754 654.925 176.901 655.623 177.111C656.342 177.3 656.998 177.584 657.59 177.962C658.182 178.34 658.658 178.855 659.017 179.506C659.377 180.136 659.556 180.945 659.556 181.933C659.556 182.962 659.229 183.928 658.573 184.832C657.918 185.714 656.924 186.428 655.591 186.975C654.259 187.5 652.589 187.762 650.58 187.762ZM668.515 187.762C666.125 187.762 664.264 187.195 662.932 186.061C661.6 184.905 660.934 183.141 660.934 180.767V166.334H668.102V180.704C668.102 181.229 668.24 181.638 668.515 181.933C668.811 182.227 669.17 182.374 669.593 182.374C670.206 182.374 670.746 182.216 671.211 181.901L672.924 186.848C672.374 187.164 671.708 187.395 670.925 187.542C670.164 187.689 669.361 187.762 668.515 187.762ZM658.555 176.355V171.155H671.655V176.355H658.555Z" fill="#00C4F0"/>
<path d="M319.801 300.366C504.827 247.065 744.647 267.252 845.226 280.671C818.642 216.82 850.044 98.7876 968.345 112.668C1062.99 123.773 1068.92 221.862 1060.06 269.518H1093.29C1084.78 256.193 1084.87 244.835 1086.64 241.134L1087.97 237.593C1143.27 180.961 1162.41 113.131 1165.07 86.2951C1136.36 88.5159 902.327 35.3995 788.899 8.56364C570.908 -6.70499 521.726 0.235292 443.303 37.7128C380.563 67.6948 322.344 79.8173 301.076 82.1308C111.794 78.7994 22.8245 132.564 2 159.862L94.3071 153.356C124.953 146.693 125.98 147.4 118.813 150.959C102.903 158.862 83.3433 165.54 65.5927 166.688C3.26576 170.722 3.25411 180.197 5.98748 183.459C16.1782 200.579 30.4453 240.925 5.98748 265.353C-18.4702 289.783 76.4365 296.818 126.947 297.28C101.426 270.629 103.021 215.847 107.009 191.788C160.178 69.6385 315.717 106.311 331.67 185.431C344.429 248.726 330.435 285.098 319.801 300.366Z" fill="black" stroke="#00C4F0"/>
<path d="M952.281 321.374C1007.03 321.374 1051.41 277.285 1051.41 222.898C1051.41 168.512 1007.03 124.423 952.281 124.423C897.535 124.423 853.155 168.512 853.155 222.898C853.155 277.285 897.535 321.374 952.281 321.374Z" fill="#00C4F0"/>
<path d="M220.075 321.374C274.821 321.374 319.201 277.285 319.201 222.898C319.201 168.512 274.821 124.423 220.075 124.423C165.33 124.423 120.95 168.512 120.95 222.898C120.95 277.285 165.33 321.374 220.075 321.374Z" fill="#00C4F0"/>
<path d="M717.988 84.1959L364.473 86.1373C492.852 19.9611 662.224 19.6217 730.863 27.7239L754.73 49.7108C907.729 46.2164 1011.17 66.3658 1043.77 76.8772C956.079 58.7792 814.602 62.2842 754.823 66.2991L717.988 84.1959Z" fill="black" stroke="black"/>
<path d="M825.374 258.517C763.155 247.103 639.986 251.43 586.178 255.021C635.074 237.877 766.184 238.83 825.627 241.45L825.374 258.517Z" fill="black" stroke="black"/>
<path d="M177.766 150.95C153.024 165.953 113.346 208.447 152.565 258.396C143.035 239.439 134.734 191.409 177.766 150.95Z" fill="black" stroke="black" stroke-width="0.3"/>
<path d="M268.977 285.4C284.781 280.778 312.859 263.25 298.722 230.095C301.146 241.895 298.593 269.476 268.977 285.4Z" fill="black" stroke="black" stroke-width="0.3"/>
<path d="M879.906 255.724C879.406 271.107 886.897 301.175 920.862 298.396C909.54 297.073 885.499 286.687 879.906 255.724Z" fill="black" stroke="black" stroke-width="0.3"/>
<path d="M1035.55 239.505C1043.95 211.944 1045.06 153.994 982.324 142.676C1002.14 150.514 1040.53 180.853 1035.55 239.505Z" fill="black" stroke="black"/>
<path d="M323.166 296.427C505.67 244.971 741.979 264.578 841.186 277.533C814.965 215.893 849.053 100.653 965.741 114.053C1059.09 124.773 1064.95 219.466 1056.21 265.471H1088.98C1080.59 252.608 1080.68 241.643 1082.43 238.07L1083.74 234.652C1138.28 179.981 1157.16 114.5 1159.78 88.5933C1131.46 90.7372 900.622 39.4603 788.743 13.5537C573.723 -1.18622 525.212 5.51372 447.857 41.6935C385.974 70.6371 328.548 82.34 307.57 84.5732C120.87 81.3573 33.1138 133.259 12.5732 159.613L103.622 153.332C133.518 146.97 134.836 147.568 128.023 150.906C112.207 158.656 92.7912 165.092 75.1913 166.21C13.8217 170.107 13.8118 179.245 16.5063 182.393C26.5581 198.919 40.6305 237.868 16.5063 261.451C-7.61784 285.035 85.9947 291.826 135.816 292.272C110.643 266.543 112.217 213.659 116.15 190.433C168.594 72.5134 315.437 106.013 331.17 182.393C343.757 243.496 333.655 281.687 323.166 296.427Z" fill="#00C4F0" stroke="black"/>
<path d="M948.315 321.374C1002.33 321.374 1046.12 277.873 1046.12 224.211C1046.12 170.55 1002.33 127.049 948.315 127.049C894.3 127.049 850.512 170.55 850.512 224.211C850.512 277.873 894.3 321.374 948.315 321.374Z" fill="black"/>
<path d="M226.683 321.374C280.699 321.374 324.487 277.873 324.487 224.211C324.487 170.55 280.699 127.049 226.683 127.049C172.668 127.049 128.88 170.55 128.88 224.211C128.88 277.873 172.668 321.374 226.683 321.374Z" fill="black"/>
<path d="M717.195 88.1271L369.292 90.0378C495.607 20.0754 662.293 19.785 729.846 28.3852L753.343 51.6567C903.913 48.0215 1005.72 69.3815 1037.81 80.5161C951.498 61.3328 812.268 64.9838 753.441 69.2069L717.195 88.1271Z" fill="black" stroke="black"/>
<path d="M713.283 84.4906L378.927 88.6059C497.729 27.0864 661.677 24.4564 725.199 31.9905L747.284 52.4314C888.875 49.1865 981.587 65.5397 1011.75 75.3127C930.603 58.4854 802.691 64.1222 747.371 67.8532L713.283 84.4906Z" fill="black" stroke="#00C4F0"/>
<path d="M822.879 259.682C761.646 248.449 640.433 252.708 587.479 256.242C635.601 239.37 764.627 240.307 823.127 242.885L822.879 259.682Z" fill="black" stroke="#00C4F0"/>
<path d="M185.549 153.821C161.2 168.587 122.152 210.406 160.748 259.562C151.37 240.905 143.2 193.639 185.549 153.821Z" fill="#00C4F0" stroke="#00C4F0" stroke-width="0.3"/>
<path d="M276.965 286.965C291.308 281.81 317.21 263.693 306.089 232.462C307.717 243.695 304.173 270.324 276.965 286.965Z" fill="#00C4F0" stroke="#00C4F0" stroke-width="0.3"/>
<path d="M876.544 256.932C876.052 272.071 883.427 301.661 916.85 298.927C905.708 297.624 882.05 287.404 876.544 256.932Z" fill="#00C4F0" stroke="black" stroke-width="0.3"/>
<path d="M1029.71 240.97C1037.98 213.847 1039.08 156.816 977.337 145.678C996.839 153.391 1034.62 183.249 1029.71 240.97Z" fill="#00C4F0" stroke="black"/>
<path d="M359.82 160.253V153.97L366.109 147.688H396.864L403.187 153.97V167.434L388.696 167.398L388.733 160.253H359.82ZM374.277 162.946V185.385L388.733 185.349V178.169H403.224L403.187 191.632L396.864 197.915L366.146 197.951L359.82 191.668V162.946H374.277ZM423.268 185.385L419.436 197.951H404.982L420.34 147.688H442.023L457.383 197.951H442.927L439.097 185.385H423.268ZM431.183 159.499L427.133 172.819H435.267L431.183 159.499ZM475.366 166.536L489.822 166.5V160.253H475.366V166.536ZM482.485 179.102H475.366V197.951H460.91V147.688H497.953L504.276 153.97V172.783L498.495 178.528L506.084 197.951H489.822L482.485 179.102ZM514.128 179.102L507.805 172.819V153.97L514.094 147.688H551.172V160.253H522.262V166.536H544.846L551.172 172.819V191.668L544.846 197.951H507.805V185.385H536.715V179.102H514.128ZM594.367 185.385L608.82 185.349V179.102H594.367V185.385ZM579.91 160.253V147.688H616.954L623.277 153.97V169.229L619.663 172.819L623.277 176.41V191.632L616.954 197.915L579.91 197.951V162.946H594.367V166.536L608.82 166.5V160.253H579.91ZM670.172 191.632L663.847 197.915L633.129 197.951L626.806 191.668V153.97L633.092 147.688H663.847L670.172 153.97V191.632ZM655.716 160.253H641.259V185.385L655.716 185.349V160.253ZM717.065 191.632L710.742 197.915L680.024 197.951L673.698 191.668V153.97L679.987 147.688H710.742L717.065 153.97V191.632ZM702.611 160.253H688.155V185.385L702.611 185.349V160.253ZM726.917 179.102L720.594 172.819V153.97L726.883 147.688H763.961V160.253H735.05V166.536H757.635L763.961 172.819V191.668L757.635 197.951H720.594V185.385H749.504V179.102H726.917ZM796.4 160.253V197.915H781.943V160.253H767.487V147.688H810.856V160.253H796.4Z" fill="black"/>
</svg>
