<svg width="" height="" viewBox="0 0 13 9" fill="none" xmlns="http://www.w3.org/2000/svg">
<path d="M0.419889 2.11444L6.49989 8.40555L12.5799 2.11444C12.7451 1.94297 12.8354 1.71291 12.8309 1.47487C12.8264 1.23683 12.7276 1.0103 12.5561 0.845133C12.3847 0.679962 12.1546 0.589672 11.9166 0.594126C11.6785 0.59858 11.452 0.697413 11.2868 0.868883L6.49989 5.82471L1.70767 0.868882C1.5425 0.697412 1.31597 0.598579 1.07793 0.594125C0.839893 0.589671 0.609832 0.679961 0.438362 0.845132C0.266892 1.0103 0.168059 1.23682 0.163604 1.47487C0.159151 1.71291 0.249441 1.94297 0.414611 2.11444L0.419889 2.11444Z" fill="#262626"/>
</svg>
