<svg width="27" height="22" viewBox="0 0 27 22" fill="none" xmlns="http://www.w3.org/2000/svg">
<path d="M25.0982 6.70824H23.4148C22.9424 6.70824 22.5266 7.01862 22.3922 7.46937L21.3559 10.9603H21.2409L20.7803 9.56565C20.6353 9.12874 20.2279 8.8343 19.7673 8.8343H17.635V7.77125C17.635 7.18445 17.1584 6.70824 16.5688 6.70824H14.4364V5.64523H15.5026C16.0922 5.64523 16.5688 5.16901 16.5688 4.58222V1.39309C16.5688 0.806297 16.0922 0.330078 15.5026 0.330078H6.97323C6.38365 0.330078 5.90707 0.806297 5.90707 1.39309V4.58217C5.90707 5.16896 6.38365 5.64518 6.97323 5.64518H8.03939V6.70819H4.84086C4.25128 6.70824 3.7747 7.18445 3.7747 7.77125V12.0233H2.70854V10.9603C2.70854 10.3736 2.23196 9.89731 1.64238 9.89731C1.05275 9.89731 0.576172 10.3736 0.576172 10.9603V15.2124C0.576172 15.7992 1.05275 16.2754 1.64233 16.2754C2.23191 16.2754 2.70849 15.7992 2.70849 15.2124V14.1494H3.7747V16.2754C3.7747 16.4328 3.80989 16.588 3.8781 16.7305L5.39315 19.9196C5.56907 20.2905 5.9433 20.5276 6.35591 20.5276H19.2066C19.583 20.5276 19.9316 20.3288 20.1235 20.0068L21.0777 18.4016H21.4274L22.4221 20.9178C22.5842 21.3238 22.9776 21.5907 23.4147 21.5907H25.0982C25.6878 21.5907 26.1644 21.1144 26.1644 20.5276V7.77125C26.1644 7.18445 25.6878 6.70824 25.0982 6.70824Z" fill="#A7A6A7"/>
</svg>
