<svg width="24" height="25" viewBox="0 0 24 25" fill="none" xmlns="http://www.w3.org/2000/svg">
<path d="M19.658 5.0964L20.4444 4.3205L21.3432 5.20728L22.916 3.65543L19.5457 0.330078L17.9729 1.88193L18.8717 2.76865L17.8606 3.76626C12.4681 0.551733 5.50278 2.21441 2.35718 7.53497C-0.788414 12.8555 0.896683 19.5062 6.17684 22.7207C11.457 25.9353 18.4222 24.2726 21.5679 18.952C24.3765 14.4074 23.5901 8.64345 19.658 5.0964ZM12.0187 20.9472C7.63728 20.9472 4.15466 17.5111 4.15466 13.1881C4.15466 8.86516 7.63728 5.42893 12.0187 5.42893V13.1881H19.8827C19.8827 17.511 16.4001 20.9472 12.0187 20.9472Z" fill="#A7A6A7"/>
</svg>
