<svg width="26" height="21" viewBox="0 0 26 21" fill="none" xmlns="http://www.w3.org/2000/svg">
<path d="M13.6879 9.95953C13.4604 9.92426 13.2318 9.90008 13.0038 9.90008C11.5066 9.90008 10.0105 10.5585 9.20779 11.909C8.01124 13.9227 8.76091 16.5938 10.8333 17.7559C11.5158 18.139 12.2649 18.2248 13 18.2248C14.4971 18.2248 15.9894 17.4701 16.7917 16.1195C17.6973 14.5954 17.4692 12.8464 16.426 11.5348L17.875 6.11955L13.6879 9.95953ZM14.8757 15.1627C14.4901 15.8122 13.7735 16.1195 13 16.1195C12.6181 16.1195 12.2514 16.1206 11.9172 15.9327C10.8826 15.3527 10.5272 14.0627 11.1242 13.058C11.5099 12.4085 12.2303 12.0048 13.0044 12.0048C13.3856 12.0048 13.7485 12.1001 14.0828 12.2874C15.1173 12.868 15.4727 14.1574 14.8757 15.1627ZM13 0.330078C5.8202 0.330078 0 6.34744 0 13.488C0 16.0985 0.780541 18.298 2.11845 20.3301H7.58332V18.2248H3.24999C2.46621 16.7095 2.16667 15.2095 2.16667 13.488C2.16667 7.54692 7.0265 2.43534 13 2.43534C18.9735 2.43534 23.8333 7.54692 23.8333 13.488C23.8333 15.2095 23.5337 16.7095 22.75 18.2248H18.4166V20.3301H23.8333C25.1712 18.298 26 16.0985 26 13.488C26 6.34744 20.1798 0.330078 13 0.330078Z" fill="#A7A6A7"/>
</svg>
