<svg width="23" height="26" viewBox="0 0 23 26" fill="none" xmlns="http://www.w3.org/2000/svg">
<path d="M21.9796 6.26311L22.0004 6.24207L16.8317 1.0314L15.3609 2.51815L18.2886 5.47763C16.9844 5.98257 16.0546 7.25195 16.0546 8.74572C16.0546 10.6813 17.6087 12.2523 19.5235 12.2523C20.016 12.2523 20.4878 12.147 20.9111 11.9577V22.0705C20.9111 22.842 20.2867 23.4731 19.5235 23.4731C18.7604 23.4731 18.136 22.842 18.136 22.0706V15.7588C18.136 14.2089 16.8942 12.9536 15.3609 12.9536H13.9734V3.13531C13.9733 1.58539 12.7314 0.330078 11.1982 0.330078H2.8728C1.3395 0.330078 0.0976562 1.58539 0.0976562 3.13531V25.577H13.9733V15.0574H16.0546V22.0706C16.0546 24.0061 17.6087 25.577 19.5235 25.577C21.4383 25.577 22.9924 24.0061 22.9924 22.0706V8.74572C22.9925 7.77793 22.604 6.90132 21.9796 6.26311ZM11.1982 10.1483H2.8728V3.13531H11.1982V10.1483ZM19.5235 10.1483C18.7604 10.1483 18.136 9.51714 18.136 8.74572C18.136 7.97431 18.7604 7.34314 19.5235 7.34314C20.2867 7.34314 20.9111 7.97431 20.9111 8.74572C20.9111 9.51714 20.2867 10.1483 19.5235 10.1483Z" fill="#A7A6A7"/>
</svg>
