<svg width="43" height="43" viewBox="0 0 43 43" fill="none" xmlns="http://www.w3.org/2000/svg">
<circle cx="21.5" cy="21.5" r="20.5" fill="white" stroke="#00C4F0" stroke-width="2"/>
<path d="M15.5038 22.3421C14.1358 22.3421 13.0431 21.8772 12.2259 20.9474C11.4086 20.0175 11 18.7544 11 17.1579C11 15.5789 11.4086 14.3246 12.2259 13.3947C13.0431 12.4649 14.1358 12 15.5038 12C16.8718 12 17.9645 12.4649 18.7817 13.3947C19.599 14.3246 20.0076 15.5789 20.0076 17.1579C20.0076 18.7544 19.599 20.0175 18.7817 20.9474C17.9645 21.8772 16.8718 22.3421 15.5038 22.3421ZM26.0838 12.1579H28.8287L16.9429 30.8421H14.198L26.0838 12.1579ZM15.5038 20.0789C16.6942 20.0789 17.2893 19.1053 17.2893 17.1579C17.2893 15.2281 16.6942 14.2632 15.5038 14.2632C14.3135 14.2632 13.7183 15.2281 13.7183 17.1579C13.7183 19.1053 14.3135 20.0789 15.5038 20.0789ZM27.4962 31C26.1104 31 25.0089 30.5351 24.1916 29.6053C23.3744 28.6579 22.9657 27.3947 22.9657 25.8158C22.9657 24.2368 23.3744 22.9825 24.1916 22.0526C25.0267 21.1228 26.1282 20.6579 27.4962 20.6579C28.8642 20.6579 29.9569 21.1228 30.7741 22.0526C31.5914 22.9825 32 24.2368 32 25.8158C32 27.4123 31.5914 28.6754 30.7741 29.6053C29.9569 30.5351 28.8642 31 27.4962 31ZM27.4962 28.7368C28.6865 28.7368 29.2817 27.7632 29.2817 25.8158C29.2817 23.886 28.6865 22.9211 27.4962 22.9211C26.2881 22.9211 25.684 23.886 25.684 25.8158C25.684 27.7632 26.2881 28.7368 27.4962 28.7368Z" fill="#02C4F0"/>
</svg>
