<svg width="44" height="44" viewBox="0 0 44 44" fill="none" xmlns="http://www.w3.org/2000/svg">
<g id="Group 544">
<g id="Group 543">
<g id="Group">
<g id="Group_2">
<g id="Group_3">
<path id="Vector" d="M21.5713 12.0579C20.4846 12.1723 19.3865 12.4582 18.643 12.8128C17.9566 13.156 17.4419 13.625 17.4419 13.9224C17.4419 14.4715 18.2312 15.1006 19.3979 15.4552C22.3034 16.3703 26.5815 15.9242 27.897 14.5515C28.4118 14.0254 28.2402 13.5106 27.3937 13.0073C26.1583 12.2523 23.6189 11.8405 21.5713 12.0579Z" fill="#00C4F0"/>
<path id="Vector_2" d="M17.4419 16.6334V17.64L17.8079 17.9947C18.2426 18.4179 19.1462 18.8183 20.2444 19.0699C20.9078 19.2186 21.2853 19.2415 22.8296 19.2415C24.431 19.2529 24.7398 19.2301 25.4033 19.0585C26.3756 18.8183 26.9819 18.578 27.5309 18.2234C28.1258 17.8231 28.2287 17.5714 28.2287 16.4733C28.2287 15.9814 28.2173 15.5811 28.1829 15.5811C28.1486 15.5811 27.9656 15.6954 27.7483 15.8213C26.7073 16.4618 24.8199 16.8622 22.8296 16.8622C20.8621 16.8622 19.3636 16.5648 18.1282 15.9471L17.4304 15.6039L17.4419 16.6334Z" fill="#00C4F0"/>
<path id="Vector_3" d="M12.4088 16.565C10.4642 16.8738 9 17.6631 9 18.3838C9 19.1387 10.5557 19.9394 12.5804 20.2483C13.3239 20.3627 15.463 20.3627 16.1264 20.2597L16.5496 20.1911L16.5725 18.4181C16.584 16.7709 16.584 16.6336 16.4467 16.565C16.1607 16.4506 13.1294 16.4392 12.4088 16.565Z" fill="#00C4F0"/>
<path id="Vector_4" d="M17.4419 19.9852C17.4419 20.9804 17.4419 21.0032 17.6935 21.2778C18.3913 22.0785 20.4732 22.6847 22.5207 22.6847H23.4358L23.6532 22.2386C23.9963 21.5752 24.3395 21.0947 24.8542 20.5457C25.266 20.111 25.3004 20.0538 25.1059 20.111C24.4539 20.2597 22.7838 20.3283 21.8115 20.2597C20.13 20.111 18.9747 19.825 17.968 19.276L17.4304 18.99V19.9852H17.4419Z" fill="#00C4F0"/>
<path id="Vector_5" d="M28.8694 19.2756C25.5864 19.962 23.4245 22.856 23.8477 26.0246C24.0307 27.4773 24.6027 28.6097 25.6551 29.6392C26.8333 30.8174 28.2059 31.3665 29.8874 31.3665C32.301 31.3665 34.3257 30.1082 35.3667 27.9463C36.2131 26.2076 36.2131 24.3659 35.3552 22.5929C35.0349 21.918 34.8519 21.6778 34.1999 21.0258C32.9302 19.7561 31.6147 19.207 29.8989 19.2184C29.4184 19.2413 28.9609 19.2642 28.8694 19.2756ZM31.1457 21.8837C31.6605 22.0324 32.1409 22.4099 32.3811 22.8789C32.6442 23.3822 32.6442 24.343 32.3811 24.8921C31.9693 25.7386 31.2372 26.1389 29.9561 26.219C29.1325 26.2648 29.1096 26.2648 29.1096 26.4821C29.1096 26.688 29.121 26.688 29.9332 26.7223L30.7568 26.7452V27.0312V27.3171L29.9332 27.34L29.1096 27.3629L29.0867 28.0836C29.0753 28.5182 29.0181 28.8156 28.9609 28.8614C28.8007 28.9643 28.0115 28.9415 27.9085 28.8271C27.8513 28.7699 27.8056 28.461 27.8056 28.0264V27.3286H27.5082C27.2336 27.3286 27.2107 27.3171 27.2107 27.0312C27.2107 26.7566 27.2222 26.7338 27.5082 26.7338H27.8056V24.4117V22.0896L28 21.9638C28.2402 21.8151 29.4985 21.6778 30.2077 21.7235C30.4937 21.7579 30.9169 21.8265 31.1457 21.8837Z" fill="#00C4F0"/>
<path id="Vector_6" d="M29.3726 22.7531L29.121 22.8103L29.0981 24.0113L29.0752 25.2124H29.67C30.7453 25.2124 31.2028 24.8693 31.26 24.0113C31.2829 23.5767 31.2715 23.4508 31.1113 23.2564C31.0084 23.1306 30.8253 22.9704 30.6995 22.9018C30.4021 22.7531 29.7158 22.673 29.3726 22.7531Z" fill="#00C4F0"/>
<path id="Vector_7" d="M9 21.003V22.021L9.30885 22.3527C10.1782 23.3136 12.9578 23.9313 15.4172 23.7025C15.9891 23.6568 16.4925 23.5881 16.5268 23.5653C16.5611 23.5424 16.5954 22.9933 16.5954 22.3413V21.1631L16.0349 21.2317C15.0512 21.3461 12.9121 21.3004 12.0885 21.1402C10.876 20.9114 9.98374 20.614 9.34317 20.2022L9 19.9963V21.003Z" fill="#00C4F0"/>
<path id="Vector_8" d="M17.4419 23.3594C17.4419 24.3545 17.4419 24.366 17.6935 24.652C18.357 25.4069 20.4389 26.0589 22.2462 26.0589H22.9669V25.3154C22.9669 24.9151 22.9897 24.3889 23.0355 24.1486L23.0927 23.714L22.2348 23.6568C20.3588 23.5309 19.1005 23.2335 18.0596 22.673L17.4419 22.3413V23.3594Z" fill="#00C4F0"/>
<path id="Vector_9" d="M9 24.4004V25.4184L9.4118 25.8188C9.90367 26.2878 10.7387 26.6424 12.0427 26.9169C12.7519 27.0656 13.1981 27.1 14.3534 27.1C15.1427 27.0885 15.9548 27.0542 16.1722 27.0199L16.5496 26.9398L16.5725 25.7387L16.5954 24.5376L16.0235 24.6063C15.0512 24.7207 12.9007 24.6749 12.0542 24.5148C11.0476 24.3432 10.0409 24 9.45755 23.6569L9 23.3823V24.4004Z" fill="#00C4F0"/>
<path id="Vector_10" d="M17.4419 26.7566C17.4419 27.7404 17.4419 27.7518 17.6935 28.0263C18.4485 28.8842 20.496 29.4562 22.8639 29.4562C23.5502 29.4562 24.1336 29.4448 24.1565 29.4104C24.1793 29.3876 24.0306 29.0558 23.8247 28.6669C23.6188 28.278 23.3901 27.7632 23.31 27.5345L23.1727 27.0998L21.8801 26.9968C20.313 26.8824 19.1691 26.6079 18.1739 26.116L17.4304 25.75L17.4419 26.7566Z" fill="#00C4F0"/>
<path id="Vector_11" d="M9 27.7176C9 28.8615 9.05719 29.0102 9.66345 29.422C10.8417 30.2227 13.3124 30.6689 15.4058 30.463C15.9777 30.4058 16.4696 30.3371 16.5153 30.3142C16.5611 30.2914 16.5954 29.7423 16.5954 29.0903V27.9121L16.1607 27.9807C15.9205 28.015 15.0283 28.0494 14.1932 28.0379C12.9693 28.0265 12.5003 27.9922 11.8025 27.8435C10.8073 27.6376 9.78928 27.2715 9.33173 26.9512L9.01144 26.7339V27.7176H9Z" fill="#00C4F0"/>
<path id="Vector_12" d="M17.4419 30.12V31.1266L17.7393 31.4469C18.8832 32.7166 22.8067 33.2428 25.6893 32.5221C26.4214 32.3391 27.4051 31.9616 27.4051 31.8587C27.4051 31.8472 27.1992 31.7214 26.9476 31.6185C26.5015 31.4126 25.7694 30.9436 25.2432 30.5089L24.9801 30.303L24.065 30.3945C21.9145 30.6118 19.4666 30.2229 17.9795 29.4222L17.4533 29.1362L17.4419 30.12Z" fill="#00C4F0"/>
</g>
</g>
</g>
</g>
<circle id="Ellipse 34" cx="22" cy="22" r="21" stroke="#02C4F0" stroke-width="2"/>
</g>
</svg>
