<svg width="43" height="43" viewBox="0 0 43 43" fill="none" xmlns="http://www.w3.org/2000/svg">
<circle cx="21.5" cy="21.5" r="20.5" fill="white" stroke="#00C4F0" stroke-width="2"/>
<path d="M12.269 22.1221V29.7319C12.269 30.432 12.8385 31.0002 13.5373 31.0002H19.8788V22.1221H12.269Z" fill="#02C4F0"/>
<path d="M30.0245 17.0488H26.0116C26.2995 16.8522 26.5468 16.6569 26.7193 16.4819C27.7428 15.4533 27.7428 13.7791 26.7193 12.7505C25.725 11.7486 23.9925 11.7511 22.9994 12.7505C22.449 13.3022 20.9904 15.5484 21.1921 17.0488H21.1007C21.3011 15.5484 19.8426 13.3022 19.2934 12.7505C18.2991 11.7511 16.5666 11.7511 15.5735 12.7505C14.5512 13.7791 14.5512 15.4533 15.5722 16.4819C15.746 16.6569 15.9933 16.8522 16.2812 17.0488H12.2683C11.5695 17.0488 11 17.6183 11 18.3171V20.2195C11 20.5696 11.2841 20.8537 11.6342 20.8537H19.8781V18.3171H22.4147V20.8537H30.6587C31.0087 20.8537 31.2928 20.5696 31.2928 20.2195V18.3171C31.2928 17.6183 30.7246 17.0488 30.0245 17.0488ZM19.8033 17.0069C19.8033 17.0069 19.75 17.0488 19.5686 17.0488C18.6922 17.0488 17.0194 16.1381 16.4727 15.5877C15.9413 15.0525 15.9413 14.1799 16.4727 13.6447C16.7302 13.3859 17.0714 13.2439 17.4341 13.2439C17.7956 13.2439 18.1367 13.3859 18.3942 13.6447C19.249 14.5046 20.0988 16.7013 19.8033 17.0069ZM22.7229 17.0488C22.5428 17.0488 22.4895 17.0082 22.4895 17.0069C22.194 16.7013 23.0438 14.5046 23.8986 13.6447C24.4097 13.1285 25.3039 13.1259 25.8201 13.6447C26.3528 14.1799 26.3528 15.0525 25.8201 15.5877C25.2735 16.1381 23.6006 17.0488 22.7229 17.0488Z" fill="#02C4F0"/>
<path d="M22.4141 22.1221V31.0002H28.7556C29.4557 31.0002 30.0239 30.432 30.0239 29.7319V22.1221H22.4141Z" fill="#02C4F0"/>
</svg>
