<svg width="44" height="44" viewBox="0 0 44 44" fill="none" xmlns="http://www.w3.org/2000/svg">
<g id="Group 545">
<g id="Group 542">
<path id="Vector" d="M35.0021 16.3053C34.8964 16.3053 34.7881 16.3205 34.68 16.3503L33.4565 16.6874L32.1858 13.5908C31.826 12.7136 30.762 12 29.8141 12H17.9234C16.9757 12 15.9116 12.7136 15.5517 13.5908L14.2828 16.6832L13.0745 16.3503C12.9664 16.3205 12.8581 16.3053 12.7525 16.3053C12.1742 16.3053 11.7546 16.7473 11.7546 17.3563V18.0779C11.7546 18.1074 11.757 18.1364 11.7591 18.1656C11.2554 18.4833 10.7826 18.8575 10.3513 19.2891C8.83511 20.8058 8 22.8228 8 24.9682C8 27.1137 8.83511 29.1306 10.3514 30.6474C11.8678 32.1644 13.8837 33 16.028 33C18.1723 33 20.1884 32.1645 21.7047 30.6474C22.5885 29.7633 23.2388 28.7084 23.6294 27.558H31.1079V29.0942C31.1079 29.805 31.6859 30.3832 32.3964 30.3832H34.0791C34.7895 30.3832 35.3675 29.805 35.3675 29.0942V22.9424C35.3675 22.0614 35.0956 20.6816 34.7611 19.8666L34.556 19.3669H34.7115C35.422 19.3669 36 18.7886 36 18.0778V17.3562C36 16.7473 35.5803 16.3053 35.0021 16.3053ZM17.1286 13.9831C17.3438 13.4584 17.984 13.0291 18.5508 13.0291H29.1867C29.7536 13.0291 30.3937 13.4584 30.6089 13.9831L32.5309 18.6668C32.7461 19.1916 32.4584 19.6209 31.8915 19.6209H22.0169C21.9159 19.508 21.8124 19.3968 21.7045 19.2888C20.188 17.7718 18.1721 16.9364 16.0279 16.9364C15.9903 16.9364 15.9532 16.9385 15.9156 16.9391L17.1286 13.9831ZM16.028 30.5961C14.5255 30.5961 13.113 30.0105 12.0505 28.9475C10.988 27.8847 10.4029 26.4715 10.4029 24.9682C10.4029 23.4649 10.9881 22.0518 12.0505 20.9888C13.113 19.9259 14.5255 19.3405 16.028 19.3405C17.5305 19.3405 18.9431 19.9259 20.0056 20.9888C21.068 22.0518 21.6531 23.4649 21.6531 24.9682C21.6531 26.4715 21.0681 27.8847 20.0056 28.9475C18.943 30.0105 17.5305 30.5961 16.028 30.5961ZM32.8876 24.5911C32.8876 24.8747 32.6557 25.1067 32.3722 25.1067H28.7214C28.4379 25.1067 28.206 24.8747 28.206 24.5911V22.838C28.206 22.5544 28.4379 22.3224 28.7214 22.3224H32.3722C32.6557 22.3224 32.8876 22.5544 32.8876 22.838V24.5911Z" fill="#00C4F0"/>
<path id="Vector_2" d="M18.6937 22.1768C18.3597 21.879 17.8902 21.9662 17.6449 22.372L15.5029 25.915L14.1916 24.7564C13.8566 24.4602 13.3873 24.5502 13.1436 24.9574C12.8998 25.3644 12.9739 25.9343 13.309 26.2304L15.0623 27.7794C15.2307 27.9282 15.4264 28 15.6206 28C15.9135 28 16.2029 27.8367 16.3888 27.5292L18.8544 23.4509C19.0997 23.0452 19.0277 22.4748 18.6937 22.1768Z" fill="#00C4F0"/>
</g>
<circle id="Ellipse 33" cx="22" cy="22" r="21" stroke="#02C4F0" stroke-width="2"/>
</g>
</svg>
