<svg width="97" height="45" viewBox="0 0 97 45" fill="none" xmlns="http://www.w3.org/2000/svg">
<path d="M0.0949707 30.8L13.691 0H22.271L35.911 30.8H26.847L16.199 4.268H19.631L8.98297 30.8H0.0949707ZM7.53097 24.816L9.77497 18.392H24.823L27.067 24.816H7.53097ZM39.4406 30.8V0H48.0206V23.892H59.8566V0H68.4366V30.8H39.4406ZM64.6966 37.092V28.864L66.5006 30.8H59.8566V23.892H72.6606V37.092H64.6966Z" fill="white"/>
<path d="M34.375 25.7998C40.7263 25.7998 45.875 20.6511 45.875 14.2998C45.875 7.9485 40.7263 2.7998 34.375 2.7998C28.0237 2.7998 22.875 7.9485 22.875 14.2998C22.875 20.6511 28.0237 25.7998 34.375 25.7998Z" fill="#313131"/>
<path d="M32.1147 9.80559C32.1068 9.81039 31.9649 9.82249 31.7993 9.82979C31.4103 9.84669 30.6376 9.91449 30.4851 9.94359C30.4194 9.95569 30.267 9.97749 30.1434 9.99199C29.3681 10.084 27.9567 10.3916 27.0158 10.6749C26.7162 10.7645 26.6925 10.779 26.2983 11.1156L25.9882 11.3796L25.7595 11.3989C25.6333 11.411 25.4966 11.4256 25.452 11.4328C24.49 11.5878 24.0485 11.8663 23.9407 12.3772C23.8907 12.6218 23.875 12.8446 23.875 13.2732C23.875 13.726 23.8803 13.7599 23.9775 14.0675C24.0827 14.392 24.1878 14.593 24.2561 14.593C24.3087 14.593 24.3113 14.6002 24.2902 14.7067C24.2403 14.9731 24.3034 15.4042 24.4348 15.7069C24.5268 15.9175 24.7581 16.2445 24.8816 16.3316C25.0998 16.4914 25.1892 16.5181 25.4914 16.5108C25.8305 16.506 26.1038 16.4696 26.3456 16.4019C26.498 16.3583 26.5558 16.3267 26.682 16.2105L26.8318 16.0749L27.5493 16.305C27.941 16.4309 28.4981 16.6101 28.7846 16.7021C29.0685 16.7941 29.5416 16.9467 29.836 17.0411C30.1277 17.1356 30.6166 17.293 30.9188 17.3899C31.2237 17.4891 31.6416 17.6248 31.8519 17.6925C32.1646 17.7943 32.254 17.8136 32.346 17.8015C32.4537 17.787 32.4563 17.787 32.4563 17.8572C32.4563 17.9783 32.6351 18.4747 32.7744 18.7338C32.9557 19.0728 33.3474 19.4941 33.6181 19.6395C33.9255 19.8041 34.2856 19.8356 35.0242 19.7629C35.8179 19.6855 36.2568 19.5329 36.4907 19.2496L36.5801 19.143L37.2188 19.1334C37.571 19.1309 37.9284 19.1164 38.0152 19.1019C38.1019 19.0874 38.3516 19.0486 38.5671 19.0147C38.9167 18.9614 39.3766 18.8743 39.6658 18.8089C39.7209 18.7968 39.763 18.7968 39.763 18.8089C39.763 18.9033 40.3228 18.7992 41.524 18.4795C42.7303 18.1575 43.3217 17.9661 43.5214 17.8305C43.8368 17.6175 44.6858 16.7384 44.7646 16.5471C44.7778 16.5181 44.7725 16.414 44.7541 16.3122C44.7121 16.058 44.7147 15.9926 44.7804 15.7335C44.8593 15.4187 44.875 15.2855 44.875 14.8956C44.875 14.2006 44.741 13.7333 44.4072 13.2611C44.1732 12.9317 43.9446 12.7598 43.4689 12.5613C42.4438 12.1278 40.9194 11.7863 39.3556 11.6387C38.5067 11.5587 38.278 11.5418 38.0861 11.5418H37.8995L37.6025 11.365C36.659 10.8008 35.5893 10.2777 35.0846 10.1325C34.7745 10.0428 34.2252 9.91929 33.9361 9.87329C33.8441 9.85879 33.7389 9.83949 33.6995 9.82979C33.6128 9.81279 32.1331 9.78859 32.1147 9.80559ZM35.174 10.2971C35.6024 10.4521 36.2595 10.7645 36.793 11.0672C37.3318 11.3698 37.5105 11.4982 37.4606 11.5418C37.3213 11.6653 35.4315 12.2222 33.8099 12.6194C32.9689 12.8252 32.7061 12.8834 32.0095 13.019C31.5785 13.1037 31.3446 13.14 31.2132 13.14H31.1133L30.9924 12.8906C30.7217 12.3433 30.4431 11.8808 30.1145 11.428C29.9279 11.1737 29.9095 11.1301 29.9673 11.089C30.0015 11.0623 30.3353 10.9606 30.7611 10.8444C31.8177 10.5586 33.0503 10.3456 34.2961 10.2366C34.7876 10.193 34.9138 10.2027 35.174 10.2971ZM27.778 10.997C27.9725 11.0187 28.1801 11.0454 28.2379 11.0575C28.2957 11.0696 28.4482 11.0962 28.5796 11.118C28.9555 11.1834 29.0606 11.2294 29.2551 11.4159C29.3471 11.5055 29.4943 11.6701 29.5837 11.784C29.9016 12.2005 30.2381 12.7816 30.2066 12.8567C30.1829 12.9172 30.062 12.9076 29.7045 12.8228C29.2971 12.726 27.4389 12.2925 26.8713 12.1617C26.2457 12.0164 26.2983 12.0382 26.314 11.9244C26.3351 11.7863 26.5296 11.5273 26.824 11.2488C27.0789 11.0066 27.2076 10.934 27.3575 10.9485C27.3943 10.9533 27.5835 10.9752 27.778 10.997ZM26.7897 12.6291C26.8765 12.6581 26.9685 12.6993 26.9948 12.7211C27.0447 12.7622 27.0447 12.7647 26.9974 12.7792C26.908 12.8131 26.7267 12.801 26.5611 12.7501C26.3902 12.6993 26.2378 12.6048 26.2746 12.571C26.3062 12.5419 26.6268 12.5782 26.7897 12.6291ZM44.6279 14.0069C44.6963 14.312 44.6937 14.3387 44.5806 14.4888C44.4887 14.6123 44.4361 14.6438 44.4019 14.593C44.3704 14.5469 44.3388 14.5687 44.2232 14.7067C43.9787 14.9974 43.4321 15.4502 43.1219 15.6172C43.0011 15.6802 42.7513 15.7505 42.4044 15.8134C42.2888 15.8352 42.1653 15.8594 42.1284 15.8642C41.9813 15.8933 41.4135 15.9781 41.1691 16.012C41.0246 16.0314 40.7933 16.0628 40.6566 16.0822C40.5199 16.1016 40.2177 16.133 39.9864 16.1549C39.7551 16.1742 39.466 16.2033 39.3425 16.2154C39.219 16.2275 38.9929 16.2445 38.8378 16.2541C38.5566 16.2686 38.554 16.2686 38.504 16.3437C38.4042 16.4914 38.1676 16.6246 38.002 16.6246C37.7208 16.6295 37.3791 16.1064 37.3634 15.6487L37.3581 15.5059L37.4842 15.4744C37.6919 15.426 38.2517 15.3848 38.3122 15.4139C38.3648 15.4405 38.4856 15.5616 38.554 15.6536L38.5934 15.7093L39.1453 15.6826C40.1126 15.6366 41.6291 15.4816 42.3124 15.3557C42.5805 15.3073 42.7829 15.2613 42.846 15.2322C43.1246 15.0991 43.8185 14.5784 44.0419 14.3339C44.1365 14.2273 44.1522 14.1958 44.1522 14.099C44.1522 13.927 44.2784 13.7406 44.4544 13.6534C44.4992 13.6292 44.5123 13.6365 44.5438 13.7042C44.5622 13.7479 44.6016 13.8834 44.6279 14.0069ZM42.9852 13.9174C43.0063 13.9512 42.6226 14.2927 42.4333 14.4089C42.3124 14.4816 42.2651 14.4937 41.9708 14.5276C41.5029 14.5832 41.0956 14.6147 40.6434 14.6292C40.2387 14.6438 40.1441 14.6292 40.2045 14.5615C40.2282 14.5349 40.3675 14.5251 40.8721 14.513C41.4635 14.4985 41.976 14.4574 42.2152 14.4016C42.3308 14.375 42.5253 14.2418 42.7461 14.0384C42.9012 13.8907 42.9511 13.8665 42.9852 13.9174ZM25.126 14.2781C25.2023 14.2781 25.4099 14.4259 25.5072 14.5469C25.6176 14.6874 25.7095 14.8569 25.7568 15.007C25.7753 15.0651 25.7937 15.1305 25.8015 15.1499C25.8068 15.1693 25.8199 15.2976 25.8252 15.4332C25.8357 15.6415 25.8278 15.7069 25.7805 15.8376C25.6622 16.1694 25.3915 16.2856 25.0814 16.1355C24.9579 16.0774 24.8028 15.9006 24.6976 15.702C24.561 15.4429 24.5321 15.3219 24.5321 14.9925C24.5321 14.7431 24.5426 14.685 24.5925 14.5784C24.6924 14.375 24.8842 14.2394 25.0314 14.266C25.0603 14.2733 25.1024 14.2781 25.126 14.2781ZM44.6463 15.4211C44.691 15.4623 44.6858 15.6003 44.6358 15.6439C44.5727 15.7044 44.4939 15.6536 44.4939 15.5495C44.4939 15.5059 44.5018 15.4526 44.5097 15.4308C44.5281 15.3848 44.6016 15.38 44.6463 15.4211ZM44.6174 15.9877C44.6489 16.0919 44.6753 16.242 44.6753 16.3195C44.6778 16.4745 44.6805 16.4696 44.3782 16.8208C44.0024 17.2566 43.4899 17.7168 43.2718 17.8185C43.2297 17.8403 43.0457 17.8959 42.8644 17.9468C42.683 17.9952 42.5069 18.0461 42.4701 18.0558C42.3887 18.0824 42.1494 18.1405 41.3794 18.3197C40.2887 18.574 40.0364 18.62 39.8419 18.6079C39.7288 18.6006 39.7236 18.5982 39.6736 18.4795C39.629 18.3778 39.621 18.2979 39.621 17.971C39.621 17.7216 39.6315 17.5666 39.65 17.5327C39.6841 17.477 39.7709 17.4601 40.4332 17.3753C40.6513 17.3487 41.0219 17.3003 41.2611 17.2688C41.5003 17.2373 41.8603 17.1889 42.0627 17.1622C42.2651 17.1356 42.57 17.092 42.7408 17.0654L43.051 17.0169L43.2271 16.8765C43.3243 16.799 43.6502 16.5205 43.9525 16.2565C44.2547 15.9926 44.5149 15.7819 44.5307 15.7867C44.5465 15.7916 44.5859 15.8812 44.6174 15.9877ZM34.0018 16.0095C34.4355 16.2105 34.8113 16.7578 34.9506 17.3947C35.0163 17.6877 35.0242 18.201 34.969 18.4456C34.8192 19.097 34.3067 19.4239 33.802 19.1939C33.3868 19.0026 33.0425 18.5353 32.8585 17.9153C32.7928 17.7022 32.7875 17.6393 32.7849 17.2445C32.7849 16.8547 32.7901 16.7893 32.8453 16.627C32.919 16.4091 33.0083 16.259 33.1371 16.1355C33.2895 15.9854 33.4314 15.9296 33.668 15.9272C33.7863 15.9248 33.852 15.9417 34.0018 16.0095ZM38.3884 17.6829C38.5829 17.77 38.6644 18.0049 38.554 18.1696C38.4488 18.3318 38.2596 18.3826 38.0756 18.3003C37.9364 18.2398 37.8654 18.1381 37.8654 17.9952C37.8654 17.8572 37.9337 17.7531 38.0677 17.6925C38.1965 17.6344 38.2675 17.632 38.3884 17.6829Z" fill="#00C4F0"/>
<path d="M59.375 44.7998C64.0694 44.7998 67.875 40.9942 67.875 36.2998C67.875 31.6054 64.0694 27.7998 59.375 27.7998C54.6806 27.7998 50.875 31.6054 50.875 36.2998C50.875 40.9942 54.6806 44.7998 59.375 44.7998Z" fill="#313131"/>
<path d="M0 42.7996V32.2996H8.775V34.5946H2.925V36.2896H5.64C6.92 36.2896 7.895 36.5596 8.565 37.0996C9.245 37.6396 9.585 38.4196 9.585 39.4396C9.585 40.4896 9.205 41.3146 8.445 41.9146C7.685 42.5046 6.62 42.7996 5.25 42.7996H0ZM2.925 40.6696H5.055C5.545 40.6696 5.92 40.5696 6.18 40.3696C6.45 40.1696 6.585 39.8846 6.585 39.5146C6.585 38.7746 6.075 38.4046 5.055 38.4046H2.925V40.6696ZM13.8482 36.3646H18.7232V38.5846H13.8482V36.3646ZM14.0582 40.5046H19.5482V42.7996H11.1182V32.2996H19.3532V34.5946H14.0582V40.5046ZM21.2402 42.7996V32.2996H26.0402C27.0002 32.2996 27.8252 32.4546 28.5152 32.7646C29.2152 33.0746 29.7552 33.5246 30.1352 34.1146C30.5152 34.6946 30.7052 35.3846 30.7052 36.1846C30.7052 36.9746 30.5152 37.6596 30.1352 38.2396C29.7552 38.8196 29.2152 39.2696 28.5152 39.5896C27.8252 39.8996 27.0002 40.0546 26.0402 40.0546H22.8902L24.2102 38.7646V42.7996H21.2402ZM24.2102 39.0796L22.8902 37.7146H25.8602C26.4802 37.7146 26.9402 37.5796 27.2402 37.3096C27.5502 37.0396 27.7052 36.6646 27.7052 36.1846C27.7052 35.6946 27.5502 35.3146 27.2402 35.0446C26.9402 34.7746 26.4802 34.6396 25.8602 34.6396H22.8902L24.2102 33.2746V39.0796ZM34.7808 36.3646H39.6558V38.5846H34.7808V36.3646ZM34.9908 40.5046H40.4808V42.7996H32.0508V32.2996H40.2858V34.5946H34.9908V40.5046ZM42.1729 42.7996V32.2996H49.8679L49.8529 34.6546H44.4379L45.0979 33.9946V42.7996H42.1729ZM55.4481 43.0096C54.6081 43.0096 53.8331 42.8746 53.1231 42.6046C52.4131 42.3346 51.7931 41.9546 51.2631 41.4646C50.7431 40.9646 50.3381 40.3846 50.0481 39.7246C49.7581 39.0646 49.6131 38.3396 49.6131 37.5496C49.6131 36.7596 49.7581 36.0346 50.0481 35.3746C50.3381 34.7146 50.7431 34.1396 51.2631 33.6496C51.7931 33.1496 52.4131 32.7646 53.1231 32.4946C53.8331 32.2246 54.6081 32.0896 55.4481 32.0896C56.2981 32.0896 57.0731 32.2246 57.7731 32.4946C58.4831 32.7646 59.0981 33.1496 59.6181 33.6496C60.1381 34.1396 60.5431 34.7146 60.8331 35.3746C61.1331 36.0346 61.2831 36.7596 61.2831 37.5496C61.2831 38.3396 61.1331 39.0696 60.8331 39.7396C60.5431 40.3996 60.1381 40.9746 59.6181 41.4646C59.0981 41.9546 58.4831 42.3346 57.7731 42.6046C57.0731 42.8746 56.2981 43.0096 55.4481 43.0096ZM55.4481 40.5496C55.8481 40.5496 56.2181 40.4796 56.5581 40.3396C56.9081 40.1996 57.2081 39.9996 57.4581 39.7396C57.7181 39.4696 57.9181 39.1496 58.0581 38.7796C58.2081 38.4096 58.2831 37.9996 58.2831 37.5496C58.2831 37.0896 58.2081 36.6796 58.0581 36.3196C57.9181 35.9496 57.7181 35.6346 57.4581 35.3746C57.2081 35.1046 56.9081 34.8996 56.5581 34.7596C56.2181 34.6196 55.8481 34.5496 55.4481 34.5496C55.0481 34.5496 54.6731 34.6196 54.3231 34.7596C53.9831 34.8996 53.6831 35.1046 53.4231 35.3746C53.1731 35.6346 52.9731 35.9496 52.8231 36.3196C52.6831 36.6796 52.6131 37.0896 52.6131 37.5496C52.6131 37.9996 52.6831 38.4096 52.8231 38.7796C52.9731 39.1496 53.1731 39.4696 53.4231 39.7396C53.6831 39.9996 53.9831 40.1996 54.3231 40.3396C54.6731 40.4796 55.0481 40.5496 55.4481 40.5496ZM62.8711 42.7996V32.2996H67.9711C69.2311 32.2996 70.2061 32.5396 70.8961 33.0196C71.5961 33.4896 71.9461 34.1596 71.9461 35.0296C71.9461 35.8796 71.6211 36.5496 70.9711 37.0396C70.3211 37.5196 69.4511 37.7596 68.3611 37.7596L68.6611 37.0546C69.8411 37.0546 70.7611 37.2896 71.4211 37.7596C72.0911 38.2196 72.4261 38.8996 72.4261 39.7996C72.4261 40.7196 72.0661 41.4496 71.3461 41.9896C70.6361 42.5296 69.6061 42.7996 68.2561 42.7996H62.8711ZM65.7961 40.6696H68.1361C68.5661 40.6696 68.8861 40.5796 69.0961 40.3996C69.3161 40.2096 69.4261 39.9346 69.4261 39.5746C69.4261 39.2146 69.3161 38.9496 69.0961 38.7796C68.8861 38.5996 68.5661 38.5096 68.1361 38.5096H65.7961V40.6696ZM65.7961 36.4996H67.6861C68.1061 36.4996 68.4211 36.4146 68.6311 36.2446C68.8411 36.0646 68.9461 35.8046 68.9461 35.4646C68.9461 35.1246 68.8411 34.8696 68.6311 34.6996C68.4211 34.5196 68.1061 34.4296 67.6861 34.4296H65.7961V36.4996ZM79.1932 43.0096C78.3532 43.0096 77.5782 42.8746 76.8682 42.6046C76.1582 42.3346 75.5382 41.9546 75.0082 41.4646C74.4882 40.9646 74.0832 40.3846 73.7932 39.7246C73.5032 39.0646 73.3582 38.3396 73.3582 37.5496C73.3582 36.7596 73.5032 36.0346 73.7932 35.3746C74.0832 34.7146 74.4882 34.1396 75.0082 33.6496C75.5382 33.1496 76.1582 32.7646 76.8682 32.4946C77.5782 32.2246 78.3532 32.0896 79.1932 32.0896C80.0432 32.0896 80.8182 32.2246 81.5182 32.4946C82.2282 32.7646 82.8432 33.1496 83.3632 33.6496C83.8832 34.1396 84.2882 34.7146 84.5782 35.3746C84.8782 36.0346 85.0282 36.7596 85.0282 37.5496C85.0282 38.3396 84.8782 39.0696 84.5782 39.7396C84.2882 40.3996 83.8832 40.9746 83.3632 41.4646C82.8432 41.9546 82.2282 42.3346 81.5182 42.6046C80.8182 42.8746 80.0432 43.0096 79.1932 43.0096ZM79.1932 40.5496C79.5932 40.5496 79.9632 40.4796 80.3032 40.3396C80.6532 40.1996 80.9532 39.9996 81.2032 39.7396C81.4632 39.4696 81.6632 39.1496 81.8032 38.7796C81.9532 38.4096 82.0282 37.9996 82.0282 37.5496C82.0282 37.0896 81.9532 36.6796 81.8032 36.3196C81.6632 35.9496 81.4632 35.6346 81.2032 35.3746C80.9532 35.1046 80.6532 34.8996 80.3032 34.7596C79.9632 34.6196 79.5932 34.5496 79.1932 34.5496C78.7932 34.5496 78.4182 34.6196 78.0682 34.7596C77.7282 34.8996 77.4282 35.1046 77.1682 35.3746C76.9182 35.6346 76.7182 35.9496 76.5682 36.3196C76.4282 36.6796 76.3582 37.0896 76.3582 37.5496C76.3582 37.9996 76.4282 38.4096 76.5682 38.7796C76.7182 39.1496 76.9182 39.4696 77.1682 39.7396C77.4282 39.9996 77.7282 40.1996 78.0682 40.3396C78.4182 40.4796 78.7932 40.5496 79.1932 40.5496ZM86.616 42.7996V32.2996H89.541V38.4646L93.876 32.2996H96.666V42.7996H93.741V36.6496L89.421 42.7996H86.616ZM91.626 31.6696C90.536 31.6696 89.751 31.4596 89.271 31.0396C88.791 30.6096 88.551 30.0046 88.551 29.2246H90.546C90.556 29.5746 90.646 29.8346 90.816 30.0046C90.986 30.1746 91.256 30.2596 91.626 30.2596C92.006 30.2596 92.281 30.1746 92.451 30.0046C92.631 29.8346 92.726 29.5746 92.736 29.2246H94.731C94.731 30.0046 94.486 30.6096 93.996 31.0396C93.506 31.4596 92.716 31.6696 91.626 31.6696Z" fill="#00C4F0"/>
</svg>
