<svg width="97" height="45" viewBox="0 0 97 45" fill="none" xmlns="http://www.w3.org/2000/svg">
<path d="M0.219971 31.0002L13.816 0.200195H22.396L36.036 31.0002H26.972L16.324 4.4682H19.756L9.10797 31.0002H0.219971ZM7.65597 25.0162L9.89997 18.5922H24.948L27.192 25.0162H7.65597ZM39.5656 31.0002V0.200195H48.1456V24.0922H59.9816V0.200195H68.5616V31.0002H39.5656ZM64.8216 37.2922V29.0642L66.6256 31.0002H59.9816V24.0922H72.7856V37.2922H64.8216Z" fill="#383838"/>
<path d="M34.5 26C40.8513 26 46 20.8513 46 14.5C46 8.1487 40.8513 3 34.5 3C28.1487 3 23 8.1487 23 14.5C23 20.8513 28.1487 26 34.5 26Z" fill="#FAFAFA"/>
<path d="M32.2397 10.0058C32.2318 10.0106 32.0899 10.0227 31.9243 10.03C31.5353 10.0469 30.7626 10.1147 30.6101 10.1438C30.5444 10.1559 30.392 10.1777 30.2684 10.1922C29.4931 10.2842 28.0817 10.5918 27.1408 10.8751C26.8412 10.9647 26.8175 10.9792 26.4233 11.3158L26.1132 11.5798L25.8845 11.5991C25.7583 11.6112 25.6216 11.6258 25.577 11.633C24.615 11.788 24.1735 12.0665 24.0657 12.5774C24.0157 12.822 24 13.0448 24 13.4734C24 13.9262 24.0053 13.9601 24.1025 14.2677C24.2077 14.5922 24.3128 14.7932 24.3811 14.7932C24.4337 14.7932 24.4363 14.8004 24.4152 14.9069C24.3653 15.1733 24.4284 15.6044 24.5598 15.9071C24.6518 16.1177 24.8831 16.4447 25.0066 16.5318C25.2248 16.6916 25.3142 16.7183 25.6164 16.711C25.9555 16.7062 26.2288 16.6698 26.4706 16.6021C26.623 16.5585 26.6808 16.5269 26.807 16.4107L26.9568 16.2751L27.6743 16.5052C28.066 16.6311 28.6231 16.8103 28.9096 16.9023C29.1935 16.9943 29.6666 17.1469 29.961 17.2413C30.2527 17.3358 30.7416 17.4932 31.0438 17.5901C31.3487 17.6893 31.7666 17.825 31.9769 17.8927C32.2896 17.9945 32.379 18.0138 32.471 18.0017C32.5787 17.9872 32.5813 17.9872 32.5813 18.0574C32.5813 18.1785 32.7601 18.6749 32.8994 18.934C33.0807 19.273 33.4724 19.6943 33.7431 19.8397C34.0505 20.0043 34.4106 20.0358 35.1492 19.9631C35.9429 19.8857 36.3818 19.7331 36.6157 19.4498L36.7051 19.3432L37.3438 19.3336C37.696 19.3311 38.0534 19.3166 38.1402 19.3021C38.2269 19.2876 38.4766 19.2488 38.6921 19.2149C39.0417 19.1616 39.5016 19.0745 39.7908 19.0091C39.8459 18.997 39.888 18.997 39.888 19.0091C39.888 19.1035 40.4478 18.9994 41.649 18.6797C42.8553 18.3577 43.4467 18.1663 43.6464 18.0307C43.9618 17.8177 44.8108 16.9386 44.8896 16.7473C44.9028 16.7183 44.8975 16.6142 44.8791 16.5124C44.8371 16.2582 44.8397 16.1928 44.9054 15.9337C44.9843 15.6189 45 15.4857 45 15.0958C45 14.4008 44.866 13.9335 44.5322 13.4613C44.2982 13.1319 44.0696 12.96 43.5939 12.7615C42.5688 12.328 41.0444 11.9865 39.4806 11.8389C38.6317 11.7589 38.403 11.742 38.2111 11.742H38.0245L37.7275 11.5652C36.784 11.001 35.7143 10.4779 35.2096 10.3327C34.8995 10.243 34.3502 10.1195 34.0611 10.0735C33.9691 10.059 33.8639 10.0397 33.8245 10.03C33.7378 10.013 32.2581 9.98879 32.2397 10.0058ZM35.299 10.4973C35.7274 10.6523 36.3845 10.9647 36.918 11.2674C37.4568 11.57 37.6355 11.6984 37.5856 11.742C37.4463 11.8655 35.5565 12.4224 33.9349 12.8196C33.0939 13.0254 32.8311 13.0836 32.1345 13.2192C31.7035 13.3039 31.4696 13.3402 31.3382 13.3402H31.2383L31.1174 13.0908C30.8467 12.5435 30.5681 12.081 30.2395 11.6282C30.0529 11.3739 30.0345 11.3303 30.0923 11.2892C30.1265 11.2625 30.4603 11.1608 30.8861 11.0446C31.9427 10.7588 33.1753 10.5458 34.4211 10.4368C34.9126 10.3932 35.0388 10.4029 35.299 10.4973ZM27.903 11.1972C28.0975 11.2189 28.3051 11.2456 28.3629 11.2577C28.4207 11.2698 28.5732 11.2964 28.7046 11.3182C29.0805 11.3836 29.1856 11.4296 29.3801 11.6161C29.4721 11.7057 29.6193 11.8703 29.7087 11.9842C30.0266 12.4007 30.3631 12.9818 30.3316 13.0569C30.3079 13.1174 30.187 13.1078 29.8295 13.023C29.4221 12.9262 27.5639 12.4927 26.9963 12.3619C26.3707 12.2166 26.4233 12.2384 26.439 12.1246C26.4601 11.9865 26.6546 11.7275 26.949 11.449C27.2039 11.2068 27.3326 11.1342 27.4825 11.1487C27.5193 11.1535 27.7085 11.1754 27.903 11.1972ZM26.9147 12.8293C27.0015 12.8583 27.0935 12.8995 27.1198 12.9213C27.1697 12.9624 27.1697 12.9649 27.1224 12.9794C27.033 13.0133 26.8517 13.0012 26.6861 12.9503C26.5152 12.8995 26.3628 12.805 26.3996 12.7712C26.4312 12.7421 26.7518 12.7784 26.9147 12.8293ZM44.7529 14.2071C44.8213 14.5122 44.8187 14.5389 44.7056 14.689C44.6137 14.8125 44.5611 14.844 44.5269 14.7932C44.4954 14.7471 44.4638 14.7689 44.3482 14.9069C44.1037 15.1976 43.5571 15.6504 43.2469 15.8174C43.1261 15.8804 42.8763 15.9507 42.5294 16.0136C42.4138 16.0354 42.2903 16.0596 42.2534 16.0644C42.1063 16.0935 41.5385 16.1783 41.2941 16.2122C41.1496 16.2316 40.9183 16.263 40.7816 16.2824C40.6449 16.3018 40.3427 16.3332 40.1114 16.3551C39.8801 16.3744 39.591 16.4035 39.4675 16.4156C39.344 16.4277 39.1179 16.4447 38.9628 16.4543C38.6816 16.4688 38.679 16.4688 38.629 16.5439C38.5292 16.6916 38.2926 16.8248 38.127 16.8248C37.8458 16.8297 37.5041 16.3066 37.4884 15.8489L37.4831 15.7061L37.6092 15.6746C37.8169 15.6262 38.3767 15.585 38.4372 15.6141C38.4898 15.6407 38.6106 15.7618 38.679 15.8538L38.7184 15.9095L39.2703 15.8828C40.2376 15.8368 41.7541 15.6818 42.4374 15.5559C42.7055 15.5075 42.9079 15.4615 42.971 15.4324C43.2496 15.2993 43.9435 14.7786 44.1669 14.5341C44.2615 14.4275 44.2772 14.396 44.2772 14.2992C44.2772 14.1272 44.4034 13.9408 44.5794 13.8536C44.6242 13.8294 44.6373 13.8367 44.6688 13.9044C44.6872 13.9481 44.7266 14.0836 44.7529 14.2071ZM43.1102 14.1176C43.1313 14.1514 42.7476 14.4929 42.5583 14.6091C42.4374 14.6818 42.3901 14.6939 42.0958 14.7278C41.6279 14.7834 41.2206 14.8149 40.7684 14.8294C40.3637 14.844 40.2691 14.8294 40.3295 14.7617C40.3532 14.7351 40.4925 14.7253 40.9971 14.7132C41.5885 14.6987 42.101 14.6576 42.3402 14.6018C42.4558 14.5752 42.6503 14.442 42.8711 14.2386C43.0262 14.0909 43.0761 14.0667 43.1102 14.1176ZM25.251 14.4783C25.3273 14.4783 25.5349 14.6261 25.6322 14.7471C25.7426 14.8876 25.8345 15.0571 25.8818 15.2072C25.9003 15.2653 25.9187 15.3307 25.9265 15.3501C25.9318 15.3695 25.9449 15.4978 25.9502 15.6334C25.9607 15.8417 25.9528 15.9071 25.9055 16.0378C25.7872 16.3696 25.5165 16.4858 25.2064 16.3357C25.0829 16.2776 24.9278 16.1008 24.8226 15.9022C24.686 15.6431 24.6571 15.5221 24.6571 15.1927C24.6571 14.9433 24.6676 14.8852 24.7175 14.7786C24.8174 14.5752 25.0092 14.4396 25.1564 14.4662C25.1853 14.4735 25.2274 14.4783 25.251 14.4783ZM44.7713 15.6213C44.816 15.6625 44.8108 15.8005 44.7608 15.8441C44.6977 15.9046 44.6189 15.8538 44.6189 15.7497C44.6189 15.7061 44.6268 15.6528 44.6347 15.631C44.6531 15.585 44.7266 15.5802 44.7713 15.6213ZM44.7424 16.1879C44.7739 16.2921 44.8003 16.4422 44.8003 16.5197C44.8028 16.6747 44.8055 16.6698 44.5032 17.021C44.1274 17.4568 43.6149 17.917 43.3968 18.0187C43.3547 18.0405 43.1707 18.0961 42.9894 18.147C42.808 18.1954 42.6319 18.2463 42.5951 18.256C42.5137 18.2826 42.2744 18.3407 41.5044 18.5199C40.4137 18.7742 40.1614 18.8202 39.9669 18.8081C39.8538 18.8008 39.8486 18.7984 39.7986 18.6797C39.754 18.578 39.746 18.4981 39.746 18.1712C39.746 17.9218 39.7565 17.7668 39.775 17.7329C39.8091 17.6772 39.8959 17.6603 40.5582 17.5755C40.7763 17.5489 41.1469 17.5005 41.3861 17.469C41.6253 17.4375 41.9853 17.3891 42.1877 17.3624C42.3901 17.3358 42.695 17.2922 42.8658 17.2656L43.176 17.2171L43.3521 17.0767C43.4493 16.9992 43.7752 16.7207 44.0775 16.4567C44.3797 16.1928 44.6399 15.9821 44.6557 15.9869C44.6715 15.9918 44.7109 16.0814 44.7424 16.1879ZM34.1268 16.2097C34.5605 16.4107 34.9363 16.958 35.0756 17.5949C35.1413 17.8879 35.1492 18.4012 35.094 18.6458C34.9442 19.2972 34.4317 19.6241 33.927 19.3941C33.5118 19.2028 33.1675 18.7355 32.9835 18.1155C32.9178 17.9024 32.9125 17.8395 32.9099 17.4447C32.9099 17.0549 32.9151 16.9895 32.9703 16.8272C33.044 16.6093 33.1333 16.4592 33.2621 16.3357C33.4145 16.1856 33.5564 16.1298 33.793 16.1274C33.9113 16.125 33.977 16.1419 34.1268 16.2097ZM38.5134 17.8831C38.7079 17.9702 38.7894 18.2051 38.679 18.3698C38.5738 18.532 38.3846 18.5828 38.2006 18.5005C38.0614 18.44 37.9904 18.3383 37.9904 18.1954C37.9904 18.0574 38.0587 17.9533 38.1927 17.8927C38.3215 17.8346 38.3925 17.8322 38.5134 17.8831Z" fill="#00C4F0"/>
<path d="M59.5 45C64.1944 45 68 41.1944 68 36.5C68 31.8056 64.1944 28 59.5 28C54.8056 28 51 31.8056 51 36.5C51 41.1944 54.8056 45 59.5 45Z" fill="white"/>
<path d="M0.125 42.9998V32.4998H8.9V34.7948H3.05V36.4898H5.765C7.045 36.4898 8.02 36.7598 8.69 37.2998C9.37 37.8398 9.71 38.6198 9.71 39.6398C9.71 40.6898 9.33 41.5148 8.57 42.1148C7.81 42.7048 6.745 42.9998 5.375 42.9998H0.125ZM3.05 40.8698H5.18C5.67 40.8698 6.045 40.7698 6.305 40.5698C6.575 40.3698 6.71 40.0848 6.71 39.7148C6.71 38.9748 6.2 38.6048 5.18 38.6048H3.05V40.8698ZM13.9732 36.5648H18.8482V38.7848H13.9732V36.5648ZM14.1832 40.7048H19.6732V42.9998H11.2432V32.4998H19.4782V34.7948H14.1832V40.7048ZM21.3652 42.9998V32.4998H26.1652C27.1252 32.4998 27.9502 32.6548 28.6402 32.9648C29.3402 33.2748 29.8802 33.7248 30.2602 34.3148C30.6402 34.8948 30.8302 35.5848 30.8302 36.3848C30.8302 37.1748 30.6402 37.8598 30.2602 38.4398C29.8802 39.0198 29.3402 39.4698 28.6402 39.7898C27.9502 40.0998 27.1252 40.2548 26.1652 40.2548H23.0152L24.3352 38.9648V42.9998H21.3652ZM24.3352 39.2798L23.0152 37.9148H25.9852C26.6052 37.9148 27.0652 37.7798 27.3652 37.5098C27.6752 37.2398 27.8302 36.8648 27.8302 36.3848C27.8302 35.8948 27.6752 35.5148 27.3652 35.2448C27.0652 34.9748 26.6052 34.8398 25.9852 34.8398H23.0152L24.3352 33.4748V39.2798ZM34.9058 36.5648H39.7808V38.7848H34.9058V36.5648ZM35.1158 40.7048H40.6058V42.9998H32.1758V32.4998H40.4108V34.7948H35.1158V40.7048ZM42.2979 42.9998V32.4998H49.9929L49.9779 34.8548H44.5629L45.2229 34.1948V42.9998H42.2979ZM55.5731 43.2098C54.7331 43.2098 53.9581 43.0748 53.2481 42.8048C52.5381 42.5348 51.9181 42.1548 51.3881 41.6648C50.8681 41.1648 50.4631 40.5848 50.1731 39.9248C49.8831 39.2648 49.7381 38.5398 49.7381 37.7498C49.7381 36.9598 49.8831 36.2348 50.1731 35.5748C50.4631 34.9148 50.8681 34.3398 51.3881 33.8498C51.9181 33.3498 52.5381 32.9648 53.2481 32.6948C53.9581 32.4248 54.7331 32.2898 55.5731 32.2898C56.4231 32.2898 57.1981 32.4248 57.8981 32.6948C58.6081 32.9648 59.2231 33.3498 59.7431 33.8498C60.2631 34.3398 60.6681 34.9148 60.9581 35.5748C61.2581 36.2348 61.4081 36.9598 61.4081 37.7498C61.4081 38.5398 61.2581 39.2698 60.9581 39.9398C60.6681 40.5998 60.2631 41.1748 59.7431 41.6648C59.2231 42.1548 58.6081 42.5348 57.8981 42.8048C57.1981 43.0748 56.4231 43.2098 55.5731 43.2098ZM55.5731 40.7498C55.9731 40.7498 56.3431 40.6798 56.6831 40.5398C57.0331 40.3998 57.3331 40.1998 57.5831 39.9398C57.8431 39.6698 58.0431 39.3498 58.1831 38.9798C58.3331 38.6098 58.4081 38.1998 58.4081 37.7498C58.4081 37.2898 58.3331 36.8798 58.1831 36.5198C58.0431 36.1498 57.8431 35.8348 57.5831 35.5748C57.3331 35.3048 57.0331 35.0998 56.6831 34.9598C56.3431 34.8198 55.9731 34.7498 55.5731 34.7498C55.1731 34.7498 54.7981 34.8198 54.4481 34.9598C54.1081 35.0998 53.8081 35.3048 53.5481 35.5748C53.2981 35.8348 53.0981 36.1498 52.9481 36.5198C52.8081 36.8798 52.7381 37.2898 52.7381 37.7498C52.7381 38.1998 52.8081 38.6098 52.9481 38.9798C53.0981 39.3498 53.2981 39.6698 53.5481 39.9398C53.8081 40.1998 54.1081 40.3998 54.4481 40.5398C54.7981 40.6798 55.1731 40.7498 55.5731 40.7498ZM62.9961 42.9998V32.4998H68.0961C69.3561 32.4998 70.3311 32.7398 71.0211 33.2198C71.7211 33.6898 72.0711 34.3598 72.0711 35.2298C72.0711 36.0798 71.7461 36.7498 71.0961 37.2398C70.4461 37.7198 69.5761 37.9598 68.4861 37.9598L68.7861 37.2548C69.9661 37.2548 70.8861 37.4898 71.5461 37.9598C72.2161 38.4198 72.5511 39.0998 72.5511 39.9998C72.5511 40.9198 72.1911 41.6498 71.4711 42.1898C70.7611 42.7298 69.7311 42.9998 68.3811 42.9998H62.9961ZM65.9211 40.8698H68.2611C68.6911 40.8698 69.0111 40.7798 69.2211 40.5998C69.4411 40.4098 69.5511 40.1348 69.5511 39.7748C69.5511 39.4148 69.4411 39.1498 69.2211 38.9798C69.0111 38.7998 68.6911 38.7098 68.2611 38.7098H65.9211V40.8698ZM65.9211 36.6998H67.8111C68.2311 36.6998 68.5461 36.6148 68.7561 36.4448C68.9661 36.2648 69.0711 36.0048 69.0711 35.6648C69.0711 35.3248 68.9661 35.0698 68.7561 34.8998C68.5461 34.7198 68.2311 34.6298 67.8111 34.6298H65.9211V36.6998ZM79.3182 43.2098C78.4782 43.2098 77.7032 43.0748 76.9932 42.8048C76.2832 42.5348 75.6632 42.1548 75.1332 41.6648C74.6132 41.1648 74.2082 40.5848 73.9182 39.9248C73.6282 39.2648 73.4832 38.5398 73.4832 37.7498C73.4832 36.9598 73.6282 36.2348 73.9182 35.5748C74.2082 34.9148 74.6132 34.3398 75.1332 33.8498C75.6632 33.3498 76.2832 32.9648 76.9932 32.6948C77.7032 32.4248 78.4782 32.2898 79.3182 32.2898C80.1682 32.2898 80.9432 32.4248 81.6432 32.6948C82.3532 32.9648 82.9682 33.3498 83.4882 33.8498C84.0082 34.3398 84.4132 34.9148 84.7032 35.5748C85.0032 36.2348 85.1532 36.9598 85.1532 37.7498C85.1532 38.5398 85.0032 39.2698 84.7032 39.9398C84.4132 40.5998 84.0082 41.1748 83.4882 41.6648C82.9682 42.1548 82.3532 42.5348 81.6432 42.8048C80.9432 43.0748 80.1682 43.2098 79.3182 43.2098ZM79.3182 40.7498C79.7182 40.7498 80.0882 40.6798 80.4282 40.5398C80.7782 40.3998 81.0782 40.1998 81.3282 39.9398C81.5882 39.6698 81.7882 39.3498 81.9282 38.9798C82.0782 38.6098 82.1532 38.1998 82.1532 37.7498C82.1532 37.2898 82.0782 36.8798 81.9282 36.5198C81.7882 36.1498 81.5882 35.8348 81.3282 35.5748C81.0782 35.3048 80.7782 35.0998 80.4282 34.9598C80.0882 34.8198 79.7182 34.7498 79.3182 34.7498C78.9182 34.7498 78.5432 34.8198 78.1932 34.9598C77.8532 35.0998 77.5532 35.3048 77.2932 35.5748C77.0432 35.8348 76.8432 36.1498 76.6932 36.5198C76.5532 36.8798 76.4832 37.2898 76.4832 37.7498C76.4832 38.1998 76.5532 38.6098 76.6932 38.9798C76.8432 39.3498 77.0432 39.6698 77.2932 39.9398C77.5532 40.1998 77.8532 40.3998 78.1932 40.5398C78.5432 40.6798 78.9182 40.7498 79.3182 40.7498ZM86.741 42.9998V32.4998H89.666V38.6648L94.001 32.4998H96.791V42.9998H93.866V36.8498L89.546 42.9998H86.741ZM91.751 31.8698C90.661 31.8698 89.876 31.6598 89.396 31.2398C88.916 30.8098 88.676 30.2048 88.676 29.4248H90.671C90.681 29.7748 90.771 30.0348 90.941 30.2048C91.111 30.3748 91.381 30.4598 91.751 30.4598C92.131 30.4598 92.406 30.3748 92.576 30.2048C92.756 30.0348 92.851 29.7748 92.861 29.4248H94.856C94.856 30.2048 94.611 30.8098 94.121 31.2398C93.631 31.6598 92.841 31.8698 91.751 31.8698Z" fill="#00C4F0"/>
</svg>
