<svg width="173" height="171" viewBox="0 0 173 171" fill="none" xmlns="http://www.w3.org/2000/svg">
<g filter="url(#filter0_f_52902_1796)">
<ellipse cx="86.5" cy="85.5" rx="32.5" ry="31.5" fill="#00C4F0" fill-opacity="0.75"/>
</g>
<circle cx="86" cy="86.002" r="36" fill="white" stroke="#00C4F0" stroke-width="2"/>
<path d="M69.9097 83.102V99.902C69.9097 101.062 70.8835 102.002 72.0848 102.002H78.6104V81.002H72.0848C70.8835 81.002 69.9097 81.9421 69.9097 83.102Z" fill="#00C4F0"/>
<path d="M101.622 83.359H95.1314C94.5638 83.359 94.2795 83.002 94.184 82.8482C94.0886 82.6955 93.8955 82.2879 94.1701 81.8206L96.4584 77.9356C96.9605 77.085 97.012 76.0847 96.6011 75.1916C96.1902 74.2975 95.3792 73.6491 94.3761 73.4135L92.7625 73.0332C92.3699 72.9401 91.9536 73.0584 91.6801 73.3447L82.9194 82.5205C82.0107 83.4743 81.5107 84.7042 81.5107 85.9847V96.8234C81.5107 99.6787 83.975 102.002 87.0036 102.002L97.9325 102.001C100.4 102.001 102.579 100.434 103.23 98.1918L105.575 88.045C105.644 87.7628 105.679 87.4735 105.679 87.1843C105.679 85.0754 103.859 83.359 101.622 83.359L101.622 83.359Z" fill="#00C4F0"/>
<defs>
<filter id="filter0_f_52902_1796" x="0" y="0" width="173" height="171" filterUnits="userSpaceOnUse" color-interpolation-filters="sRGB">
<feFlood flood-opacity="0" result="BackgroundImageFix"/>
<feBlend mode="normal" in="SourceGraphic" in2="BackgroundImageFix" result="shape"/>
<feGaussianBlur stdDeviation="27" result="effect1_foregroundBlur_52902_1796"/>
</filter>
</defs>
</svg>
