<svg width="175" height="176" viewBox="0 0 175 176" fill="none" xmlns="http://www.w3.org/2000/svg">
<g filter="url(#filter0_f_52902_1797)">
<circle cx="87.5" cy="87.502" r="31.5" fill="#00C4F0" fill-opacity="0.75"/>
</g>
<circle cx="88" cy="87.002" r="36" fill="white" stroke="#00C4F0" stroke-width="2"/>
<path d="M72.2085 87.5391V99.2197C72.2085 100.294 73.1976 101.167 74.4115 101.167H85.4263V87.5391H72.2085Z" fill="#00C4F0"/>
<path d="M103.044 79.7516H96.0743C96.5744 79.4498 97.004 79.15 97.3036 78.8814C99.0813 77.3025 99.0813 74.7328 97.3036 73.154C95.5764 71.616 92.5672 71.6199 90.8423 73.154C89.8862 74.0008 87.3528 77.4486 87.703 79.7516H87.5444C87.8925 77.4486 85.3591 74.0008 84.4052 73.154C82.6781 71.6199 79.6688 71.6199 77.9439 73.154C76.1683 74.7328 76.1683 77.3025 77.9417 78.8814C78.2435 79.15 78.6731 79.4498 79.1731 79.7516H72.203C70.9891 79.7516 70 80.6257 70 81.6984V84.6185C70 85.1559 70.4935 85.5919 71.1015 85.5919H85.4208V81.6984H89.8267V85.5919H104.146C104.754 85.5919 105.247 85.1559 105.247 84.6185V81.6984C105.247 80.6257 104.261 79.7516 103.044 79.7516ZM85.2908 79.6874C85.2908 79.6874 85.1983 79.7516 84.8832 79.7516C83.361 79.7516 80.4553 78.3538 79.5058 77.5089C78.5828 76.6874 78.5828 75.348 79.5058 74.5264C79.953 74.1293 80.5456 73.9113 81.1756 73.9113C81.8035 73.9113 82.3961 74.1293 82.8433 74.5264C84.3281 75.8464 85.8041 79.2182 85.2908 79.6874ZM90.362 79.7516C90.0492 79.7516 89.9567 79.6893 89.9567 79.6874C89.4434 79.2182 90.9194 75.8464 92.4042 74.5264C93.292 73.7341 94.845 73.7302 95.7417 74.5264C96.6669 75.348 96.6669 76.6874 95.7417 77.5089C94.7922 78.3538 91.8865 79.7516 90.362 79.7516Z" fill="#00C4F0"/>
<path d="M89.8333 87.5391V101.167H100.848C102.064 101.167 103.051 100.294 103.051 99.2197V87.5391H89.8333Z" fill="#00C4F0"/>
<defs>
<filter id="filter0_f_52902_1797" x="0" y="0.00195312" width="175" height="175" filterUnits="userSpaceOnUse" color-interpolation-filters="sRGB">
<feFlood flood-opacity="0" result="BackgroundImageFix"/>
<feBlend mode="normal" in="SourceGraphic" in2="BackgroundImageFix" result="shape"/>
<feGaussianBlur stdDeviation="28" result="effect1_foregroundBlur_52902_1797"/>
</filter>
</defs>
</svg>
