<svg width="173" height="171" viewBox="0 0 173 171" fill="none" xmlns="http://www.w3.org/2000/svg">
<g filter="url(#filter0_f_52902_1795)">
<ellipse cx="86.5" cy="85.5" rx="32.5" ry="31.5" fill="#00C4F0" fill-opacity="0.75"/>
</g>
<circle cx="86" cy="86.002" r="36" fill="white" stroke="#00C4F0" stroke-width="2"/>
<path d="M74.5787 87.5089C71.9729 87.5089 69.8917 86.6769 68.335 85.013C66.7783 83.3491 66 81.0887 66 78.2319C66 75.4064 66.7783 73.1617 68.335 71.4978C69.8917 69.8339 71.9729 69.002 74.5787 69.002C77.1844 69.002 79.2657 69.8339 80.8223 71.4978C82.379 73.1617 83.1574 75.4064 83.1574 78.2319C83.1574 81.0887 82.379 83.3491 80.8223 85.013C79.2657 86.6769 77.1844 87.5089 74.5787 87.5089ZM94.731 69.2845H99.9594L77.3198 102.719H72.0914L94.731 69.2845ZM74.5787 83.459C76.846 83.459 77.9797 81.7166 77.9797 78.2319C77.9797 74.7785 76.846 73.0518 74.5787 73.0518C72.3113 73.0518 71.1777 74.7785 71.1777 78.2319C71.1777 81.7166 72.3113 83.459 74.5787 83.459ZM97.4213 103.002C94.7817 103.002 92.6836 102.17 91.1269 100.506C89.5702 98.8108 88.7919 96.5504 88.7919 93.7249C88.7919 90.8995 89.5702 88.6548 91.1269 86.9909C92.7174 85.327 94.8156 84.495 97.4213 84.495C100.027 84.495 102.108 85.327 103.665 86.9909C105.222 88.6548 106 90.8995 106 93.7249C106 96.5818 105.222 98.8422 103.665 100.506C102.108 102.17 100.027 103.002 97.4213 103.002ZM97.4213 98.9521C99.6887 98.9521 100.822 97.2097 100.822 93.7249C100.822 90.2716 99.6887 88.5449 97.4213 88.5449C95.1201 88.5449 93.9695 90.2716 93.9695 93.7249C93.9695 97.2097 95.1201 98.9521 97.4213 98.9521Z" fill="#00C4F0"/>
<defs>
<filter id="filter0_f_52902_1795" x="0" y="0" width="173" height="171" filterUnits="userSpaceOnUse" color-interpolation-filters="sRGB">
<feFlood flood-opacity="0" result="BackgroundImageFix"/>
<feBlend mode="normal" in="SourceGraphic" in2="BackgroundImageFix" result="shape"/>
<feGaussianBlur stdDeviation="27" result="effect1_foregroundBlur_52902_1795"/>
</filter>
</defs>
</svg>
