<svg width="173" height="172" viewBox="0 0 173 172" fill="none" xmlns="http://www.w3.org/2000/svg">
<g filter="url(#filter0_f_52902_1794)">
<ellipse cx="86.5" cy="85.502" rx="32.5" ry="31.5" fill="#00C4F0" fill-opacity="0.75"/>
</g>
<circle cx="86" cy="85.002" r="36" fill="white" stroke="#00C4F0" stroke-width="2"/>
<path d="M71.1059 87.2624C70.8523 85.357 71.0636 83.5176 71.6384 81.8174C73.5488 76.1672 79.5419 72.0119 86.6508 71.9387V68.2451C86.6508 68.0399 86.9466 67.93 87.141 68.0546L95.9067 73.6389C96.0504 73.7341 96.0504 73.9247 95.9067 74.0126L87.1495 79.5969C86.9466 79.7215 86.6592 79.6115 86.6592 79.4063V75.7201C81.9848 75.7861 77.995 78.2851 76.2791 81.8174C75.6282 83.1512 75.2985 84.6242 75.3915 86.1705C75.5183 88.2958 76.4397 90.2525 77.8936 91.8354C78.6712 92.6782 78.4853 93.9094 77.4794 94.5469C76.5242 95.1552 75.1886 94.9866 74.4532 94.1805C72.6528 92.2311 71.4525 89.8567 71.1059 87.2624ZM96.4138 80.1685C97.8762 81.7441 98.7976 83.7081 98.9159 85.8334C99.0089 87.387 98.6708 88.86 98.0283 90.1865C96.3124 93.7188 92.3226 96.2251 87.6482 96.2838V92.5976C87.6482 92.3924 87.3523 92.2824 87.1579 92.407L78.3923 97.9913C78.2486 98.0866 78.2486 98.2771 78.3923 98.3651L87.1495 103.949C87.3524 104.074 87.6397 103.964 87.6397 103.759V100.065C94.7486 99.9993 100.75 95.8441 102.652 90.1865C103.227 88.4863 103.43 86.6469 103.185 84.7415C102.846 82.1472 101.646 79.7728 99.8457 77.8234C99.1019 77.0173 97.7748 76.8487 96.8196 77.457C95.8221 78.0946 95.6362 79.3257 96.4138 80.1685Z" fill="#00C4F0"/>
<defs>
<filter id="filter0_f_52902_1794" x="0" y="0.00195312" width="173" height="171" filterUnits="userSpaceOnUse" color-interpolation-filters="sRGB">
<feFlood flood-opacity="0" result="BackgroundImageFix"/>
<feBlend mode="normal" in="SourceGraphic" in2="BackgroundImageFix" result="shape"/>
<feGaussianBlur stdDeviation="27" result="effect1_foregroundBlur_52902_1794"/>
</filter>
</defs>
</svg>
