<svg width="19" height="21" viewBox="0 0 19 21" fill="none" xmlns="http://www.w3.org/2000/svg">
<path d="M0.456211 16.9799H3.64886V19.6802C3.64886 19.8116 3.69146 19.9192 3.77718 20.0032C3.86267 20.0879 3.97195 20.1302 4.10507 20.1302H6.48514C6.60866 20.1302 6.71555 20.0879 6.80583 20.0032C6.89611 19.9192 6.94111 19.8116 6.94111 19.6802V16.9799H14.1387C14.2715 16.9799 14.3808 16.9381 14.4665 16.8535C14.5523 16.7689 14.5948 16.6613 14.5948 16.5299V14.7298C14.5948 14.5992 14.5523 14.4909 14.4665 14.4068C14.3811 14.3222 14.2715 14.2799 14.1387 14.2799H6.94088V12.6205H11.7868C13.687 12.6205 15.238 12.0492 16.4403 10.9049C17.6421 9.76188 18.2433 8.28536 18.2433 6.47527C18.2433 4.66638 17.6421 3.18982 16.4403 2.04562C15.2382 0.902546 13.687 0.330078 11.7868 0.330078H4.10484C3.97167 0.330078 3.86263 0.372347 3.77695 0.456457C3.69146 0.541032 3.64862 0.649323 3.64862 0.779971V9.62553H0.456211C0.323089 9.62553 0.214002 9.66997 0.128323 9.75901C0.0428792 9.84809 0 9.95355 0 10.0754V12.1705C0 12.3019 0.0426038 12.4095 0.128323 12.494C0.214042 12.5787 0.322853 12.6204 0.456211 12.6204H3.64886V14.2799H0.456211C0.323089 14.2799 0.214002 14.3222 0.128323 14.4068C0.0428792 14.4909 0 14.599 0 14.7298V16.5299C0 16.6613 0.0426038 16.7689 0.128323 16.8534C0.214002 16.9381 0.323049 16.9799 0.456211 16.9799ZM6.94088 3.32571H11.5017C12.5088 3.32571 13.3211 3.61623 13.9389 4.19747C14.5564 4.77875 14.8653 5.53838 14.8653 6.4755C14.8653 7.41309 14.5564 8.17296 13.9389 8.75354C13.3211 9.33528 12.5088 9.6258 11.5017 9.6258H6.94088V3.32571Z" fill="#00C4F0"/>
</svg>
