<svg width="22" height="21" viewBox="0 0 22 21" fill="none" xmlns="http://www.w3.org/2000/svg">
<path d="M1.3418 10.916V18.8754C1.3418 19.6077 1.94548 20.202 2.6863 20.202H9.40879V10.916H1.3418Z" fill="#00C4F0"/>
<path d="M20.1675 5.61081H15.9135C16.2187 5.40519 16.4809 5.2009 16.6637 5.01783C17.7487 3.94199 17.7487 2.19092 16.6637 1.11507C15.6096 0.0670867 13.773 0.0697399 12.7203 1.11507C12.1368 1.69213 10.5906 4.04148 10.8044 5.61081H10.7076C10.92 4.04148 9.37384 1.69213 8.79167 1.11507C7.73759 0.0697399 5.901 0.0697399 4.84826 1.11507C3.76459 2.19092 3.76459 3.94199 4.84692 5.01783C5.03111 5.2009 5.29329 5.40519 5.59849 5.61081H1.3445C0.60368 5.61081 0 6.20643 0 6.93737V8.92722C0 9.29335 0.301168 9.59051 0.672249 9.59051H9.41149V6.93737H12.1005V9.59051H20.8397C21.2108 9.59051 21.512 9.29335 21.512 8.92722V6.93737C21.512 6.20643 20.9096 5.61081 20.1675 5.61081ZM9.33216 5.56703C9.33216 5.56703 9.27569 5.61081 9.08343 5.61081C8.15438 5.61081 6.38099 4.65833 5.80151 4.0826C5.23816 3.52279 5.23816 2.61011 5.80151 2.0503C6.07444 1.77968 6.43611 1.63111 6.82064 1.63111C7.20382 1.63111 7.56549 1.77968 7.83842 2.0503C8.74462 2.94972 9.64543 5.24733 9.33216 5.56703ZM12.4272 5.61081C12.2363 5.61081 12.1798 5.56836 12.1798 5.56703C11.8665 5.24733 12.7674 2.94972 13.6735 2.0503C14.2154 1.51039 15.1633 1.50774 15.7105 2.0503C16.2752 2.61011 16.2752 3.52279 15.7105 4.0826C15.131 4.65833 13.3576 5.61081 12.4272 5.61081Z" fill="#00C4F0"/>
<path d="M12.0996 10.916V20.202H18.8221C19.5643 20.202 20.1666 19.6077 20.1666 18.8754V10.916H12.0996Z" fill="#00C4F0"/>
</svg>
