<svg width="31" height="20" viewBox="0 0 31 20" fill="none" xmlns="http://www.w3.org/2000/svg">
<path d="M11.9789 11.4356C11.9789 13.991 11.4731 15.9455 10.4616 17.2994C9.45015 18.6532 7.96932 19.3301 6.01916 19.3301C4.09327 19.3301 2.62054 18.6659 1.60095 17.3374C0.581363 16.009 0.0594321 14.1052 0.0351562 11.626V8.22453C0.0351562 5.64382 0.544949 3.68501 1.56454 2.34811C2.59221 1.01122 4.069 0.34277 5.99488 0.34277C7.92077 0.34277 9.3935 1.00699 10.4131 2.33542C11.4327 3.6554 11.9546 5.55497 11.9789 8.03415V11.4356ZM8.47102 7.70416C8.47102 6.17265 8.26872 5.05998 7.86412 4.36615C7.46762 3.66386 6.84454 3.31271 5.99488 3.31271C5.1695 3.31271 4.55856 3.64693 4.16205 4.31538C3.77364 4.97537 3.56729 6.01189 3.54302 7.42493V11.9179C3.54302 13.424 3.73723 14.5452 4.12564 15.2813C4.52215 16.009 5.15332 16.3728 6.01916 16.3728C6.8769 16.3728 7.49594 16.0217 7.87626 15.3194C8.25658 14.6171 8.45484 13.5425 8.47102 12.0956V7.70416Z" fill="#00C4F0"/>
<path d="M14.3094 4.15039C14.3094 3.01656 14.6614 2.0985 15.3654 1.39621C16.0694 0.685456 16.9918 0.330078 18.1328 0.330078C19.29 0.330078 20.2205 0.681225 20.9245 1.38352C21.6285 2.07735 21.9805 3.02079 21.9805 4.21385V5.12767C21.9805 6.26996 21.6285 7.18802 20.9245 7.88185C20.2205 8.57568 19.2981 8.9226 18.1571 8.9226C17.008 8.9226 16.0775 8.57568 15.3654 7.88185C14.6614 7.17955 14.3094 6.23611 14.3094 5.05152V4.15039ZM16.6398 5.12767C16.6398 5.63536 16.7774 6.04573 17.0525 6.3588C17.3358 6.66341 17.7039 6.81572 18.1571 6.81572C18.6102 6.81572 18.9703 6.65918 19.2374 6.34611C19.5044 6.03304 19.6379 5.6142 19.6379 5.0896V4.15039C19.6379 3.6427 19.5044 3.23233 19.2374 2.91926C18.9703 2.60619 18.6021 2.44965 18.1328 2.44965C17.6878 2.44965 17.3277 2.60619 17.0525 2.91926C16.7774 3.22387 16.6398 3.65116 16.6398 4.20115V5.12767ZM22.7574 14.5452C22.7574 13.4029 23.1134 12.4848 23.8255 11.791C24.5376 11.0887 25.4601 10.7376 26.593 10.7376C27.742 10.7376 28.6685 11.0845 29.3725 11.7783C30.0846 12.4637 30.4407 13.4114 30.4407 14.6213V15.5352C30.4407 16.669 30.0927 17.587 29.3968 18.2893C28.7009 18.9832 27.7744 19.3301 26.6172 19.3301C25.452 19.3301 24.5174 18.9789 23.8134 18.2766C23.1094 17.5743 22.7574 16.6436 22.7574 15.4844V14.5452ZM25.0879 15.5352C25.0879 16.0005 25.2335 16.3982 25.5248 16.7282C25.8161 17.0582 26.1803 17.2232 26.6172 17.2232C27.6045 17.2232 28.0981 16.6521 28.0981 15.5098V14.5452C28.0981 14.0375 27.9605 13.6313 27.6854 13.3267C27.4102 13.0137 27.0461 12.8571 26.593 12.8571C26.1398 12.8571 25.7757 13.0137 25.5005 13.3267C25.2254 13.6313 25.0879 14.0502 25.0879 14.5833V15.5352ZM18.849 17.6928L17.1375 16.7282L25.7676 2.28465L27.479 3.24925L18.849 17.6928Z" fill="#00C4F0"/>
</svg>
