<svg width="30" height="30" viewBox="0 0 30 30" fill="none" xmlns="http://www.w3.org/2000/svg">
<circle cx="15" cy="15" r="15" fill="#00C4F0"/>
<path d="M15 14.5C14.337 14.5 13.7011 14.2366 13.2322 13.7678C12.7634 13.2989 12.5 12.663 12.5 12C12.5 11.337 12.7634 10.7011 13.2322 10.2322C13.7011 9.76339 14.337 9.5 15 9.5C15.663 9.5 16.2989 9.76339 16.7678 10.2322C17.2366 10.7011 17.5 11.337 17.5 12C17.5 12.3283 17.4353 12.6534 17.3097 12.9567C17.1841 13.26 16.9999 13.5356 16.7678 13.7678C16.5356 13.9999 16.26 14.1841 15.9567 14.3097C15.6534 14.4353 15.3283 14.5 15 14.5ZM15 5C13.1435 5 11.363 5.7375 10.0503 7.05025C8.7375 8.36301 8 10.1435 8 12C8 17.25 15 25 15 25C15 25 22 17.25 22 12C22 10.1435 21.2625 8.36301 19.9497 7.05025C18.637 5.7375 16.8565 5 15 5Z" fill="white"/>
</svg>
