<svg width="30" height="30" viewBox="0 0 30 30" fill="none" xmlns="http://www.w3.org/2000/svg">
<circle cx="15" cy="15" r="15" fill="#00C4F0"/>
<path d="M22.7061 19.5332L19.0551 16.2137C18.8825 16.0568 18.6558 15.9732 18.4227 15.9804C18.1895 15.9876 17.9684 16.0851 17.8058 16.2523L15.6565 18.4626C15.1392 18.3638 14.0992 18.0396 13.0286 16.9717C11.958 15.9002 11.6338 14.8575 11.5377 14.3438L13.7462 12.1936C13.9136 12.0312 14.0113 11.81 14.0185 11.5768C14.0257 11.3436 13.9419 11.1168 13.7848 10.9443L10.4662 7.29431C10.309 7.12129 10.0907 7.01634 9.85738 7.00175C9.62411 6.98716 9.39434 7.06408 9.21687 7.21617L7.2679 8.8876C7.11262 9.04344 7.01994 9.25085 7.00744 9.47049C6.99397 9.69503 6.7371 15.0138 10.8614 19.1398C14.4593 22.7368 18.9662 23 20.2074 23C20.3889 23 20.5002 22.9946 20.5299 22.9928C20.7495 22.9805 20.9568 22.8874 21.1119 22.7315L22.7824 20.7816C22.9351 20.6047 23.0126 20.3751 22.9983 20.1419C22.9841 19.9086 22.8792 19.6902 22.7061 19.5332V19.5332Z" fill="white"/>
</svg>
