<svg width="30" height="30" viewBox="0 0 30 30" fill="none" xmlns="http://www.w3.org/2000/svg">
<circle cx="15" cy="15" r="15" fill="#00C4F0"/>
<path d="M14.8571 22C13.9048 22 13.0128 21.825 12.1813 21.475C11.3493 21.125 10.6222 20.6438 10 20.0312C9.37778 19.4187 8.88889 18.703 8.53333 17.884C8.17778 17.0655 8 16.1875 8 15.25C8 14.3125 8.17778 13.4343 8.53333 12.6153C8.88889 11.7968 9.37778 11.0813 10 10.4688C10.6222 9.85625 11.3493 9.375 12.1813 9.025C13.0128 8.675 13.9048 8.5 14.8571 8.5C15.1238 8.5 15.3808 8.5155 15.6282 8.5465C15.8761 8.578 16.127 8.625 16.381 8.6875V10.225C16.127 10.15 15.8761 10.0937 15.6282 10.0562C15.3808 10.0187 15.1238 10 14.8571 10C13.3587 10 12.0952 10.5063 11.0667 11.5188C10.0381 12.5312 9.52381 13.775 9.52381 15.25C9.52381 16.725 10.0381 17.9688 11.0667 18.9813C12.0952 19.9938 13.3587 20.5 14.8571 20.5C16.3556 20.5 17.619 19.9938 18.6476 18.9813C19.6762 17.9688 20.1905 16.725 20.1905 15.25C20.1905 15.1125 20.1841 14.9875 20.1714 14.875C20.1587 14.7625 20.1397 14.6375 20.1143 14.5H21.6762C21.7016 14.6375 21.7143 14.7625 21.7143 14.875V15.25C21.7143 16.1875 21.5365 17.0655 21.181 17.884C20.8254 18.703 20.3365 19.4187 19.7143 20.0312C19.0921 20.6438 18.3652 21.125 17.5337 21.475C16.7017 21.825 15.8095 22 14.8571 22ZM16.9905 18.4L14.0952 15.55V11.5H15.619V14.95L18.0571 17.35L16.9905 18.4ZM20.1905 13V10.75H17.9048V9.25H20.1905V7H21.7143V9.25H24V10.75H21.7143V13H20.1905Z" fill="white"/>
</svg>
